<svg width="207" height="116" viewBox="0 0 207 116" fill="none" xmlns="http://www.w3.org/2000/svg">
<path d="M101.076 1.2627C94.0745 0.573103 86.7371 1.25078 80.4727 3.16211C74.4328 5.00494 69.2538 8.0394 66.4229 12.2451C48.3634 14.0181 32.1268 19.5796 20.3447 27.6553C8.46687 35.7966 1.0002 46.5851 1 58.6855C1 72.0202 9.76011 83.9356 23.5889 92.4648C37.2231 100.874 55.9183 106.092 76.5439 106.249C76.7466 108.515 77.6469 110.476 79.1504 111.923C80.8671 113.574 83.2872 114.476 86.125 114.477C91.7133 114.478 98.9885 111.01 106.498 102.726C112.535 101.191 118.188 99.1914 123.338 96.7959C135.296 91.2338 144.614 83.5072 149.707 74.4658C154.852 85.452 163.797 92.2796 173.386 95.6396C183.495 99.1823 194.383 98.895 202.389 95.5195L204.102 94.7969L202.555 93.7656C199.427 91.6809 197.283 88.4607 195.534 84.6631C193.771 80.8358 192.487 76.6159 190.943 72.4736C189.425 68.3986 187.667 64.446 184.987 61.4883C183.48 59.825 181.691 58.4878 179.521 57.6064C182.131 56.8053 184.188 55.4529 185.843 53.6865C188.565 50.7811 190.113 46.847 191.37 42.7812C192.652 38.634 193.618 34.4157 195.176 30.5186C196.715 26.6678 198.764 23.3385 202.064 21.0801L204.116 19.6768L201.664 19.2686C188.06 17.0046 177.209 17.7166 168.503 21.7803C160.263 25.6263 154.077 32.4128 149.301 42.2031C144.867 34.7133 137.516 28.1566 128.171 23.0234C128 16.3197 124.744 11.2306 119.835 7.66309C114.814 4.01407 108.069 1.95149 101.076 1.2627Z" fill="#1FC16B" stroke="#1C1C1C" stroke-width="2"/>
</svg>
