<svg width="207" height="116" viewBox="0 0 207 116" fill="none" xmlns="http://www.w3.org/2000/svg">
<path d="M105.656 1.2627C112.658 0.573103 119.995 1.25078 126.26 3.16211C132.3 5.00494 137.479 8.0394 140.31 12.2451C158.369 14.0181 174.606 19.5796 186.388 27.6553C198.266 35.7966 205.732 46.5851 205.732 58.6855C205.732 72.0202 196.972 83.9356 183.144 92.4648C169.509 100.874 150.814 106.092 130.188 106.249C129.986 108.515 129.086 110.476 127.582 111.923C125.865 113.574 123.445 114.476 120.607 114.477C115.019 114.478 107.744 111.01 100.234 102.726C94.1972 101.191 88.5448 99.1914 83.3945 96.7959C71.4364 91.2338 62.1183 83.5072 57.0254 74.4658C51.8802 85.452 42.9349 92.2796 33.3467 95.6396C23.2374 99.1823 12.349 98.895 4.34375 95.5195L2.63086 94.7969L4.17773 93.7656C7.30519 91.6809 9.44906 88.4607 11.1982 84.6631C12.9611 80.8358 14.2454 76.6159 15.7891 72.4736C17.3077 68.3986 19.065 64.446 21.7451 61.4883C23.2523 59.825 25.0409 58.4878 27.2109 57.6064C24.6017 56.8053 22.5446 55.4529 20.8896 53.6865C18.1676 50.7811 16.6192 46.847 15.3623 42.7812C14.0803 38.634 13.1144 34.4157 11.5566 30.5186C10.0174 26.6678 7.96855 23.3385 4.66797 21.0801L2.61621 19.6768L5.06836 19.2686C18.6724 17.0046 29.5232 17.7166 38.2295 21.7803C46.4691 25.6263 52.6556 32.4128 57.4316 42.2031C61.8659 34.7133 69.216 28.1566 78.5615 23.0234C78.7327 16.3197 81.9886 11.2306 86.8975 7.66309C91.9185 4.01407 98.6629 1.95149 105.656 1.2627Z" fill="#F6B51E" stroke="#1C1C1C" stroke-width="2"/>
</svg>
