<svg width="385" height="249" viewBox="0 0 385 249" fill="none" xmlns="http://www.w3.org/2000/svg">
<path d="M291.516 5.8064C267.605 -4.20343 235.15 -0.943521 195.386 28.9587C172.519 16.1266 155.904 11.9374 142.555 15.7527C129.188 19.5732 119.342 31.3484 109.826 49.7527C90.414 53.7072 76.5572 61.0206 67.3623 70.2126C58.1093 79.4629 53.6136 90.5788 52.9092 101.973C51.5096 124.615 65.0734 148.3 85.8535 160.772C88.108 189.793 98.3603 209.072 114.077 218.629C129.765 228.168 150.684 227.892 174.022 218.29C200.487 241.156 226.722 250.323 249.717 247.302C272.723 244.279 292.312 229.079 305.517 203.586C350.701 198.555 377.268 175.048 382.979 146.609C388.691 118.171 373.475 85.154 335.839 61.2869C330.487 38.8725 315.356 15.7868 291.516 5.8064Z" fill="#EFECFC" stroke="#9582E9" stroke-width="1.41903"/>
<path d="M61.8745 175.616C49.3646 175.616 39.1704 186.227 39.1704 199.385C39.1706 212.541 49.3647 223.153 61.8745 223.153C74.3843 223.153 84.5785 212.542 84.5786 199.385C84.5786 186.227 74.3844 175.616 61.8745 175.616Z" fill="#EFECFC" stroke="#9582E9" stroke-width="1.41903"/>
<path d="M16.6733 209.897C7.89747 209.898 0.709473 217.479 0.709473 226.926C0.709698 236.372 7.89761 243.954 16.6733 243.954C25.4492 243.954 32.637 236.372 32.6372 226.926C32.6372 217.479 25.4493 209.897 16.6733 209.897Z" fill="#EFECFC" stroke="#9582E9" stroke-width="1.41903"/>
<path d="M69.796 134.421L64.784 114.821H67.206L71.154 130.291L75.088 114.821H77.202L81.15 130.291L85.084 114.821H87.506L82.522 134.421H79.778L76.152 120.225L72.526 134.421H69.796ZM89.5095 120.421H91.8615V134.421H89.5095V120.421ZM90.7135 118.139C90.3402 118.139 90.0275 118.017 89.7755 117.775C89.5235 117.532 89.3975 117.229 89.3975 116.865C89.3975 116.501 89.5235 116.197 89.7755 115.955C90.0275 115.712 90.3355 115.591 90.6995 115.591C91.0635 115.591 91.3715 115.712 91.6235 115.955C91.8755 116.197 92.0015 116.501 92.0015 116.865C92.0015 117.229 91.8755 117.532 91.6235 117.775C91.3809 118.017 91.0775 118.139 90.7135 118.139ZM95.8664 134.421V113.421H98.2184V134.421H95.8664ZM102.141 134.421V113.421H104.493V134.421H102.141ZM115.703 134.421V120.421H118.055V122.171C118.549 121.517 119.17 120.999 119.917 120.617C120.673 120.225 121.494 120.029 122.381 120.029C123.417 120.029 124.364 120.281 125.223 120.785C126.081 121.289 126.758 121.956 127.253 122.787C127.747 121.956 128.419 121.289 129.269 120.785C130.127 120.281 131.07 120.029 132.097 120.029C133.151 120.029 134.108 120.285 134.967 120.799C135.825 121.303 136.507 121.984 137.011 122.843C137.524 123.701 137.781 124.658 137.781 125.713V134.421H135.429V126.273C135.429 125.582 135.261 124.943 134.925 124.355C134.589 123.767 134.136 123.295 133.567 122.941C132.997 122.586 132.367 122.409 131.677 122.409C130.986 122.409 130.356 122.577 129.787 122.913C129.217 123.239 128.765 123.697 128.429 124.285C128.093 124.863 127.925 125.526 127.925 126.273V134.421H125.573V126.273C125.573 125.526 125.405 124.863 125.069 124.285C124.733 123.697 124.275 123.239 123.697 122.913C123.127 122.577 122.497 122.409 121.807 122.409C121.125 122.409 120.495 122.586 119.917 122.941C119.347 123.295 118.895 123.767 118.559 124.355C118.223 124.943 118.055 125.582 118.055 126.273V134.421H115.703ZM150.298 120.421H152.79L145.132 141.421H142.64L145.174 134.421L140.148 120.421H142.724L146.35 131.187L150.298 120.421ZM174.784 134.421H172.082L168.358 127.995L165.782 131.075V134.421H163.43V113.421H165.782V127.421L171.648 120.421H174.714L169.954 126.091L174.784 134.421ZM177.825 120.421H180.177V134.421H177.825V120.421ZM179.029 118.139C178.656 118.139 178.343 118.017 178.091 117.775C177.839 117.532 177.713 117.229 177.713 116.865C177.713 116.501 177.839 116.197 178.091 115.955C178.343 115.712 178.651 115.591 179.015 115.591C179.379 115.591 179.687 115.712 179.939 115.955C180.191 116.197 180.317 116.501 180.317 116.865C180.317 117.229 180.191 117.532 179.939 117.775C179.697 118.017 179.393 118.139 179.029 118.139ZM195.179 113.421H197.531V134.421H195.179V132.041C194.703 132.862 194.064 133.525 193.261 134.029C192.458 134.533 191.516 134.785 190.433 134.785C189.416 134.785 188.464 134.593 187.577 134.211C186.69 133.828 185.906 133.301 185.225 132.629C184.553 131.947 184.026 131.163 183.643 130.277C183.26 129.39 183.069 128.438 183.069 127.421C183.069 126.403 183.26 125.451 183.643 124.565C184.026 123.669 184.553 122.885 185.225 122.213C185.906 121.531 186.69 120.999 187.577 120.617C188.464 120.234 189.416 120.043 190.433 120.043C191.516 120.043 192.458 120.295 193.261 120.799C194.064 121.303 194.703 121.965 195.179 122.787V113.421ZM190.461 132.503C191.385 132.503 192.183 132.279 192.855 131.831C193.536 131.373 194.059 130.757 194.423 129.983C194.796 129.208 194.983 128.354 194.983 127.421C194.983 126.469 194.796 125.61 194.423 124.845C194.05 124.07 193.522 123.459 192.841 123.011C192.169 122.553 191.376 122.325 190.461 122.325C189.537 122.325 188.697 122.553 187.941 123.011C187.194 123.468 186.597 124.084 186.149 124.859C185.701 125.624 185.477 126.478 185.477 127.421C185.477 128.363 185.706 129.222 186.163 129.997C186.62 130.762 187.227 131.373 187.983 131.831C188.739 132.279 189.565 132.503 190.461 132.503ZM215.82 120.029C217.183 120.029 218.419 120.36 219.53 121.023C220.65 121.685 221.541 122.577 222.204 123.697C222.867 124.807 223.198 126.044 223.198 127.407C223.198 128.424 223.007 129.381 222.624 130.277C222.241 131.163 221.709 131.947 221.028 132.629C220.356 133.301 219.572 133.828 218.676 134.211C217.789 134.593 216.837 134.785 215.82 134.785C214.737 134.785 213.795 134.533 212.992 134.029C212.199 133.515 211.564 132.848 211.088 132.027V134.421H208.736V113.421H211.088V122.787C211.564 121.965 212.199 121.303 212.992 120.799C213.795 120.285 214.737 120.029 215.82 120.029ZM215.792 132.489C216.716 132.489 217.556 132.26 218.312 131.803C219.068 131.345 219.67 130.734 220.118 129.969C220.566 129.194 220.79 128.34 220.79 127.407C220.79 126.455 220.561 125.596 220.104 124.831C219.647 124.056 219.04 123.445 218.284 122.997C217.528 122.539 216.697 122.311 215.792 122.311C214.877 122.311 214.079 122.539 213.398 122.997C212.726 123.454 212.203 124.07 211.83 124.845C211.466 125.619 211.284 126.473 211.284 127.407C211.284 128.349 211.466 129.208 211.83 129.983C212.203 130.748 212.731 131.359 213.412 131.817C214.093 132.265 214.887 132.489 215.792 132.489ZM232.163 134.785C230.875 134.785 229.699 134.453 228.635 133.791C227.58 133.128 226.736 132.241 226.101 131.131C225.476 130.011 225.163 128.774 225.163 127.421C225.163 126.394 225.345 125.437 225.709 124.551C226.073 123.655 226.572 122.871 227.207 122.199C227.851 121.517 228.598 120.985 229.447 120.603C230.296 120.22 231.202 120.029 232.163 120.029C233.218 120.029 234.184 120.243 235.061 120.673C235.948 121.093 236.704 121.681 237.329 122.437C237.964 123.193 238.435 124.07 238.743 125.069C239.06 126.067 239.177 127.136 239.093 128.275H227.669C227.781 129.068 228.042 129.777 228.453 130.403C228.864 131.019 229.386 131.509 230.021 131.873C230.665 132.237 231.379 132.423 232.163 132.433C233.003 132.433 233.764 132.218 234.445 131.789C235.126 131.35 235.677 130.753 236.097 129.997L238.491 130.557C237.931 131.798 237.086 132.815 235.957 133.609C234.828 134.393 233.563 134.785 232.163 134.785ZM227.599 126.427H236.727C236.652 125.643 236.4 124.929 235.971 124.285C235.542 123.631 234.996 123.109 234.333 122.717C233.67 122.325 232.947 122.129 232.163 122.129C231.379 122.129 230.66 122.32 230.007 122.703C229.354 123.085 228.812 123.603 228.383 124.257C227.963 124.901 227.702 125.624 227.599 126.427ZM249.49 134.421V113.421H251.842V134.421H249.49ZM261.788 134.785C260.5 134.785 259.324 134.453 258.26 133.791C257.206 133.128 256.361 132.241 255.726 131.131C255.101 130.011 254.788 128.774 254.788 127.421C254.788 126.394 254.97 125.437 255.334 124.551C255.698 123.655 256.198 122.871 256.832 122.199C257.476 121.517 258.223 120.985 259.072 120.603C259.922 120.22 260.827 120.029 261.788 120.029C263.076 120.029 264.248 120.36 265.302 121.023C266.366 121.685 267.211 122.577 267.836 123.697C268.471 124.817 268.788 126.058 268.788 127.421C268.788 128.438 268.606 129.39 268.242 130.277C267.878 131.163 267.374 131.947 266.73 132.629C266.096 133.301 265.354 133.828 264.504 134.211C263.664 134.593 262.759 134.785 261.788 134.785ZM261.788 132.433C262.666 132.433 263.454 132.204 264.154 131.747C264.864 131.28 265.419 130.669 265.82 129.913C266.231 129.147 266.436 128.317 266.436 127.421C266.436 126.506 266.226 125.666 265.806 124.901C265.396 124.135 264.84 123.524 264.14 123.067C263.44 122.609 262.656 122.381 261.788 122.381C260.911 122.381 260.122 122.614 259.422 123.081C258.722 123.538 258.167 124.149 257.756 124.915C257.346 125.68 257.14 126.515 257.14 127.421C257.14 128.354 257.35 129.203 257.77 129.969C258.19 130.725 258.755 131.327 259.464 131.775C260.174 132.213 260.948 132.433 261.788 132.433ZM278.343 134.421H275.333L270.223 120.393H272.729L276.831 131.691L280.933 120.393H283.439L278.343 134.421ZM291.893 134.785C290.605 134.785 289.429 134.453 288.365 133.791C287.31 133.128 286.465 132.241 285.831 131.131C285.205 130.011 284.893 128.774 284.893 127.421C284.893 126.394 285.075 125.437 285.439 124.551C285.803 123.655 286.302 122.871 286.937 122.199C287.581 121.517 288.327 120.985 289.177 120.603C290.026 120.22 290.931 120.029 291.893 120.029C292.947 120.029 293.913 120.243 294.791 120.673C295.677 121.093 296.433 121.681 297.059 122.437C297.693 123.193 298.165 124.07 298.473 125.069C298.79 126.067 298.907 127.136 298.823 128.275H287.399C287.511 129.068 287.772 129.777 288.183 130.403C288.593 131.019 289.116 131.509 289.751 131.873C290.395 132.237 291.109 132.423 291.893 132.433C292.733 132.433 293.493 132.218 294.175 131.789C294.856 131.35 295.407 130.753 295.827 129.997L298.221 130.557C297.661 131.798 296.816 132.815 295.687 133.609C294.557 134.393 293.293 134.785 291.893 134.785ZM287.329 126.427H296.457C296.382 125.643 296.13 124.929 295.701 124.285C295.271 123.631 294.725 123.109 294.063 122.717C293.4 122.325 292.677 122.129 291.893 122.129C291.109 122.129 290.39 122.32 289.737 122.703C289.083 123.085 288.542 123.603 288.113 124.257C287.693 124.901 287.431 125.624 287.329 126.427ZM312.93 113.421H315.282V134.421H312.93V132.041C312.454 132.862 311.815 133.525 311.012 134.029C310.209 134.533 309.267 134.785 308.184 134.785C307.167 134.785 306.215 134.593 305.328 134.211C304.441 133.828 303.657 133.301 302.976 132.629C302.304 131.947 301.777 131.163 301.394 130.277C301.011 129.39 300.82 128.438 300.82 127.421C300.82 126.403 301.011 125.451 301.394 124.565C301.777 123.669 302.304 122.885 302.976 122.213C303.657 121.531 304.441 120.999 305.328 120.617C306.215 120.234 307.167 120.043 308.184 120.043C309.267 120.043 310.209 120.295 311.012 120.799C311.815 121.303 312.454 121.965 312.93 122.787V113.421ZM308.212 132.503C309.136 132.503 309.934 132.279 310.606 131.831C311.287 131.373 311.81 130.757 312.174 129.983C312.547 129.208 312.734 128.354 312.734 127.421C312.734 126.469 312.547 125.61 312.174 124.845C311.801 124.07 311.273 123.459 310.592 123.011C309.92 122.553 309.127 122.325 308.212 122.325C307.288 122.325 306.448 122.553 305.692 123.011C304.945 123.468 304.348 124.084 303.9 124.859C303.452 125.624 303.228 126.478 303.228 127.421C303.228 128.363 303.457 129.222 303.914 129.997C304.371 130.762 304.978 131.373 305.734 131.831C306.49 132.279 307.316 132.503 308.212 132.503ZM323.47 127.883C323.47 126.921 323.708 126.039 324.184 125.237C324.67 124.434 325.337 123.799 326.186 123.333C326.728 123.053 327.152 122.637 327.46 122.087C327.768 121.527 327.922 120.915 327.922 120.253C327.922 119.609 327.764 119.025 327.446 118.503C327.138 117.98 326.718 117.565 326.186 117.257C325.664 116.949 325.085 116.795 324.45 116.795C323.816 116.795 323.232 116.949 322.7 117.257C322.178 117.565 321.762 117.98 321.454 118.503C321.146 119.025 320.992 119.609 320.992 120.253H318.64C318.64 119.179 318.902 118.204 319.424 117.327C319.947 116.449 320.647 115.749 321.524 115.227C322.411 114.704 323.386 114.443 324.45 114.443C325.524 114.443 326.499 114.704 327.376 115.227C328.263 115.749 328.968 116.449 329.49 117.327C330.013 118.204 330.274 119.179 330.274 120.253C330.274 121.345 330.008 122.353 329.476 123.277C328.944 124.201 328.216 124.915 327.292 125.419C326.835 125.661 326.476 126.002 326.214 126.441C325.953 126.87 325.822 127.351 325.822 127.883H323.47ZM324.646 134.785C324.282 134.785 323.974 134.659 323.722 134.407C323.47 134.145 323.344 133.837 323.344 133.483C323.344 133.128 323.47 132.829 323.722 132.587C323.974 132.335 324.282 132.209 324.646 132.209C325.001 132.209 325.304 132.335 325.556 132.587C325.808 132.829 325.934 133.128 325.934 133.483C325.934 133.837 325.808 134.145 325.556 134.407C325.304 134.659 325.001 134.785 324.646 134.785Z" fill="#45319E"/>
</svg>
