<svg width="368" height="264" viewBox="0 0 368 264" fill="none" xmlns="http://www.w3.org/2000/svg">
<path d="M92.8784 5.80298C116.669 -4.1565 148.955 -0.912149 188.503 28.8235C211.24 16.0667 227.769 11.8984 241.054 15.6956C254.357 19.498 264.152 31.2135 273.616 49.5129C292.92 53.4475 306.703 60.7224 315.851 69.8674C325.059 79.0726 329.534 90.1346 330.235 101.474C331.627 123.999 318.136 147.561 297.467 159.972C295.223 188.833 285.023 208.014 269.383 217.524C253.773 227.016 232.963 226.741 209.752 217.195C183.431 239.933 157.335 249.051 134.458 246.045C111.569 243.038 92.0816 227.918 78.9458 202.563C34.0059 197.555 7.5752 174.173 1.89209 145.875C-3.79057 117.579 11.3487 84.7333 48.7817 60.9915C54.1086 38.6956 69.1606 15.732 92.8784 5.80298Z" fill="#ECF4EC" stroke="#7EB380" stroke-width="1.4635"/>
<path d="M305.924 194.478C318.367 194.479 328.506 205.033 328.506 218.119C328.506 231.205 318.366 241.758 305.924 241.759C293.482 241.759 283.343 231.205 283.342 218.119C283.342 205.033 293.482 194.478 305.924 194.478Z" fill="#ECF4EC" stroke="#7EB380" stroke-width="1.41137"/>
<path d="M350.882 228.575C359.61 228.575 366.76 236.116 366.76 245.512C366.76 254.907 359.61 262.448 350.882 262.448C342.153 262.448 335.004 254.907 335.004 245.512C335.004 236.116 342.153 228.575 350.882 228.575Z" fill="#ECF4EC" stroke="#7EB380" stroke-width="1.41137"/>
<path d="M28.2613 132.465L23.2493 112.865H25.6713L29.6193 128.335L33.5533 112.865H35.6673L39.6153 128.335L43.5493 112.865H45.9713L40.9873 132.465H38.2433L34.6173 118.269L30.9913 132.465H28.2613ZM47.9749 118.465H50.3269V132.465H47.9749V118.465ZM49.1789 116.183C48.8055 116.183 48.4929 116.062 48.2409 115.819C47.9889 115.576 47.8629 115.273 47.8629 114.909C47.8629 114.545 47.9889 114.242 48.2409 113.999C48.4929 113.756 48.8009 113.635 49.1649 113.635C49.5289 113.635 49.8369 113.756 50.0889 113.999C50.3409 114.242 50.4669 114.545 50.4669 114.909C50.4669 115.273 50.3409 115.576 50.0889 115.819C49.8462 116.062 49.5429 116.183 49.1789 116.183ZM54.3317 132.465V111.465H56.6837V132.465H54.3317ZM60.6066 132.465V111.465H62.9586V132.465H60.6066ZM74.168 132.465V118.465H76.52V120.215C77.0147 119.562 77.6353 119.044 78.382 118.661C79.138 118.269 79.9593 118.073 80.846 118.073C81.882 118.073 82.8293 118.325 83.688 118.829C84.5467 119.333 85.2233 120 85.718 120.831C86.2127 120 86.8847 119.333 87.734 118.829C88.5927 118.325 89.5353 118.073 90.562 118.073C91.6167 118.073 92.5733 118.33 93.432 118.843C94.2907 119.347 94.972 120.028 95.476 120.887C95.9893 121.746 96.246 122.702 96.246 123.757V132.465H93.894V124.317C93.894 123.626 93.726 122.987 93.39 122.399C93.054 121.811 92.6013 121.34 92.032 120.985C91.4627 120.63 90.8327 120.453 90.142 120.453C89.4513 120.453 88.8213 120.621 88.252 120.957C87.6827 121.284 87.23 121.741 86.894 122.329C86.558 122.908 86.39 123.57 86.39 124.317V132.465H84.038V124.317C84.038 123.57 83.87 122.908 83.534 122.329C83.198 121.741 82.7407 121.284 82.162 120.957C81.5927 120.621 80.9627 120.453 80.272 120.453C79.5907 120.453 78.9607 120.63 78.382 120.985C77.8127 121.34 77.36 121.811 77.024 122.399C76.688 122.987 76.52 123.626 76.52 124.317V132.465H74.168ZM108.763 118.465H111.255L103.597 139.465H101.105L103.639 132.465L98.6133 118.465H101.189L104.815 129.231L108.763 118.465ZM128.979 118.073C130.342 118.073 131.578 118.404 132.689 119.067C133.809 119.73 134.7 120.621 135.363 121.741C136.026 122.852 136.357 124.088 136.357 125.451C136.357 126.468 136.166 127.425 135.783 128.321C135.4 129.208 134.868 129.992 134.187 130.673C133.515 131.345 132.731 131.872 131.835 132.255C130.948 132.638 129.996 132.829 128.979 132.829C127.896 132.829 126.954 132.577 126.151 132.073C125.358 131.56 124.723 130.892 124.247 130.071V132.465H121.895V111.465H124.247V120.831C124.723 120.01 125.358 119.347 126.151 118.843C126.954 118.33 127.896 118.073 128.979 118.073ZM128.951 130.533C129.875 130.533 130.715 130.304 131.471 129.847C132.227 129.39 132.829 128.778 133.277 128.013C133.725 127.238 133.949 126.384 133.949 125.451C133.949 124.499 133.72 123.64 133.263 122.875C132.806 122.1 132.199 121.489 131.443 121.041C130.687 120.584 129.856 120.355 128.951 120.355C128.036 120.355 127.238 120.584 126.557 121.041C125.885 121.498 125.362 122.114 124.989 122.889C124.625 123.664 124.443 124.518 124.443 125.451C124.443 126.394 124.625 127.252 124.989 128.027C125.362 128.792 125.89 129.404 126.571 129.861C127.252 130.309 128.046 130.533 128.951 130.533ZM150.418 118.465H152.77V132.465H150.418L150.32 130.099C149.881 130.911 149.275 131.569 148.5 132.073C147.735 132.577 146.82 132.829 145.756 132.829C144.729 132.829 143.768 132.638 142.872 132.255C141.976 131.863 141.183 131.326 140.492 130.645C139.811 129.954 139.279 129.161 138.896 128.265C138.513 127.369 138.322 126.403 138.322 125.367C138.322 124.368 138.509 123.426 138.882 122.539C139.255 121.652 139.773 120.878 140.436 120.215C141.108 119.543 141.883 119.02 142.76 118.647C143.637 118.264 144.58 118.073 145.588 118.073C146.689 118.073 147.655 118.334 148.486 118.857C149.317 119.37 149.989 120.038 150.502 120.859L150.418 118.465ZM145.714 130.547C146.638 130.547 147.436 130.323 148.108 129.875C148.789 129.418 149.312 128.802 149.676 128.027C150.049 127.252 150.236 126.398 150.236 125.465C150.236 124.513 150.049 123.654 149.676 122.889C149.303 122.114 148.775 121.503 148.094 121.055C147.422 120.598 146.629 120.369 145.714 120.369C144.79 120.369 143.95 120.598 143.194 121.055C142.438 121.512 141.836 122.128 141.388 122.903C140.949 123.668 140.73 124.522 140.73 125.465C140.73 126.408 140.959 127.266 141.416 128.041C141.873 128.806 142.48 129.418 143.236 129.875C143.992 130.323 144.818 130.547 145.714 130.547ZM163.376 118.073C164.739 118.073 165.976 118.404 167.086 119.067C168.206 119.73 169.098 120.621 169.76 121.741C170.423 122.852 170.754 124.088 170.754 125.451C170.754 126.468 170.563 127.425 170.18 128.321C169.798 129.208 169.266 129.992 168.584 130.673C167.912 131.345 167.128 131.872 166.232 132.255C165.346 132.638 164.394 132.829 163.376 132.829C162.294 132.829 161.351 132.577 160.548 132.073C159.755 131.56 159.12 130.892 158.644 130.071V132.465H156.292V111.465H158.644V120.831C159.12 120.01 159.755 119.347 160.548 118.843C161.351 118.33 162.294 118.073 163.376 118.073ZM163.348 130.533C164.272 130.533 165.112 130.304 165.868 129.847C166.624 129.39 167.226 128.778 167.674 128.013C168.122 127.238 168.346 126.384 168.346 125.451C168.346 124.499 168.118 123.64 167.66 122.875C167.203 122.1 166.596 121.489 165.84 121.041C165.084 120.584 164.254 120.355 163.348 120.355C162.434 120.355 161.636 120.584 160.954 121.041C160.282 121.498 159.76 122.114 159.386 122.889C159.022 123.664 158.84 124.518 158.84 125.451C158.84 126.394 159.022 127.252 159.386 128.027C159.76 128.792 160.287 129.404 160.968 129.861C161.65 130.309 162.443 130.533 163.348 130.533ZM182.466 118.465H184.958L177.3 139.465H174.808L177.342 132.465L172.316 118.465H174.892L178.518 129.231L182.466 118.465ZM202.681 118.073C204.044 118.073 205.281 118.404 206.391 119.067C207.511 119.73 208.403 120.621 209.065 121.741C209.728 122.852 210.059 124.088 210.059 125.451C210.059 126.468 209.868 127.425 209.485 128.321C209.103 129.208 208.571 129.992 207.889 130.673C207.217 131.345 206.433 131.872 205.537 132.255C204.651 132.638 203.699 132.829 202.681 132.829C201.599 132.829 200.656 132.577 199.853 132.073C199.06 131.56 198.425 130.892 197.949 130.071V132.465H195.597V111.465H197.949V120.831C198.425 120.01 199.06 119.347 199.853 118.843C200.656 118.33 201.599 118.073 202.681 118.073ZM202.653 130.533C203.577 130.533 204.417 130.304 205.173 129.847C205.929 129.39 206.531 128.778 206.979 128.013C207.427 127.238 207.651 126.384 207.651 125.451C207.651 124.499 207.423 123.64 206.965 122.875C206.508 122.1 205.901 121.489 205.145 121.041C204.389 120.584 203.559 120.355 202.653 120.355C201.739 120.355 200.941 120.584 200.259 121.041C199.587 121.498 199.065 122.114 198.691 122.889C198.327 123.664 198.145 124.518 198.145 125.451C198.145 126.394 198.327 127.252 198.691 128.027C199.065 128.792 199.592 129.404 200.273 129.861C200.955 130.309 201.748 130.533 202.653 130.533ZM219.024 132.829C217.736 132.829 216.56 132.498 215.496 131.835C214.442 131.172 213.597 130.286 212.962 129.175C212.337 128.055 212.024 126.818 212.024 125.465C212.024 124.438 212.206 123.482 212.57 122.595C212.934 121.699 213.434 120.915 214.068 120.243C214.712 119.562 215.459 119.03 216.308 118.647C217.158 118.264 218.063 118.073 219.024 118.073C220.079 118.073 221.045 118.288 221.922 118.717C222.809 119.137 223.565 119.725 224.19 120.481C224.825 121.237 225.296 122.114 225.604 123.113C225.922 124.112 226.038 125.18 225.954 126.319H214.53C214.642 127.112 214.904 127.822 215.314 128.447C215.725 129.063 216.248 129.553 216.882 129.917C217.526 130.281 218.24 130.468 219.024 130.477C219.864 130.477 220.625 130.262 221.306 129.833C221.988 129.394 222.538 128.797 222.958 128.041L225.352 128.601C224.792 129.842 223.948 130.86 222.818 131.653C221.689 132.437 220.424 132.829 219.024 132.829ZM214.46 124.471H223.588C223.514 123.687 223.262 122.973 222.832 122.329C222.403 121.676 221.857 121.153 221.194 120.761C220.532 120.369 219.808 120.173 219.024 120.173C218.24 120.173 217.522 120.364 216.868 120.747C216.215 121.13 215.674 121.648 215.244 122.301C214.824 122.945 214.563 123.668 214.46 124.471ZM240.621 132.731C239.865 132.703 239.128 132.563 238.409 132.311C237.7 132.05 237.075 131.7 236.533 131.261C236.001 130.813 235.614 130.3 235.371 129.721L237.387 128.853C237.527 129.17 237.779 129.469 238.143 129.749C238.507 130.029 238.927 130.253 239.403 130.421C239.879 130.589 240.36 130.673 240.845 130.673C241.359 130.673 241.839 130.594 242.287 130.435C242.735 130.276 243.099 130.043 243.379 129.735C243.669 129.418 243.813 129.04 243.813 128.601C243.813 128.134 243.655 127.77 243.337 127.509C243.029 127.238 242.637 127.028 242.161 126.879C241.695 126.72 241.219 126.571 240.733 126.431C239.772 126.188 238.913 125.899 238.157 125.563C237.401 125.218 236.804 124.784 236.365 124.261C235.936 123.729 235.721 123.052 235.721 122.231C235.721 121.363 235.959 120.612 236.435 119.977C236.921 119.342 237.555 118.852 238.339 118.507C239.123 118.162 239.963 117.989 240.859 117.989C241.989 117.989 243.02 118.232 243.953 118.717C244.887 119.202 245.582 119.86 246.039 120.691L244.149 121.797C243.991 121.461 243.748 121.167 243.421 120.915C243.095 120.654 242.721 120.448 242.301 120.299C241.881 120.15 241.452 120.07 241.013 120.061C240.472 120.042 239.963 120.112 239.487 120.271C239.021 120.43 238.643 120.672 238.353 120.999C238.073 121.316 237.933 121.713 237.933 122.189C237.933 122.656 238.083 123.01 238.381 123.253C238.689 123.496 239.086 123.692 239.571 123.841C240.066 123.981 240.603 124.144 241.181 124.331C242.031 124.602 242.824 124.914 243.561 125.269C244.299 125.624 244.891 126.067 245.339 126.599C245.797 127.131 246.021 127.789 246.011 128.573C246.011 129.432 245.755 130.183 245.241 130.827C244.728 131.462 244.061 131.947 243.239 132.283C242.427 132.619 241.555 132.768 240.621 132.731ZM260.089 118.465H262.441V132.465H260.089L259.991 130.099C259.553 130.911 258.946 131.569 258.171 132.073C257.406 132.577 256.491 132.829 255.427 132.829C254.401 132.829 253.439 132.638 252.543 132.255C251.647 131.863 250.854 131.326 250.163 130.645C249.482 129.954 248.95 129.161 248.567 128.265C248.185 127.369 247.993 126.403 247.993 125.367C247.993 124.368 248.18 123.426 248.553 122.539C248.927 121.652 249.445 120.878 250.107 120.215C250.779 119.543 251.554 119.02 252.431 118.647C253.309 118.264 254.251 118.073 255.259 118.073C256.361 118.073 257.327 118.334 258.157 118.857C258.988 119.37 259.66 120.038 260.173 120.859L260.089 118.465ZM255.385 130.547C256.309 130.547 257.107 130.323 257.779 129.875C258.461 129.418 258.983 128.802 259.347 128.027C259.721 127.252 259.907 126.398 259.907 125.465C259.907 124.513 259.721 123.654 259.347 122.889C258.974 122.114 258.447 121.503 257.765 121.055C257.093 120.598 256.3 120.369 255.385 120.369C254.461 120.369 253.621 120.598 252.865 121.055C252.109 121.512 251.507 122.128 251.059 122.903C250.621 123.668 250.401 124.522 250.401 125.465C250.401 126.408 250.63 127.266 251.087 128.041C251.545 128.806 252.151 129.418 252.907 129.875C253.663 130.323 254.489 130.547 255.385 130.547ZM268.978 115.007V118.465H273.08V120.817H268.978V132.465H266.626V120.817H264.82V118.465H266.626V115.007C266.626 114.288 266.798 113.64 267.144 113.061C267.498 112.473 267.97 112.006 268.558 111.661C269.155 111.306 269.808 111.129 270.518 111.129C271.04 111.129 271.549 111.236 272.044 111.451C272.538 111.656 272.977 111.964 273.36 112.375L271.68 114.041C271.549 113.864 271.376 113.728 271.162 113.635C270.956 113.532 270.742 113.481 270.518 113.481C270.098 113.481 269.734 113.63 269.426 113.929C269.127 114.228 268.978 114.587 268.978 115.007ZM281.734 132.829C280.446 132.829 279.27 132.498 278.206 131.835C277.152 131.172 276.307 130.286 275.672 129.175C275.047 128.055 274.734 126.818 274.734 125.465C274.734 124.438 274.916 123.482 275.28 122.595C275.644 121.699 276.144 120.915 276.778 120.243C277.422 119.562 278.169 119.03 279.018 118.647C279.868 118.264 280.773 118.073 281.734 118.073C282.789 118.073 283.755 118.288 284.632 118.717C285.519 119.137 286.275 119.725 286.9 120.481C287.535 121.237 288.006 122.114 288.314 123.113C288.632 124.112 288.748 125.18 288.664 126.319H277.24C277.352 127.112 277.614 127.822 278.024 128.447C278.435 129.063 278.958 129.553 279.592 129.917C280.236 130.281 280.95 130.468 281.734 130.477C282.574 130.477 283.335 130.262 284.016 129.833C284.698 129.394 285.248 128.797 285.668 128.041L288.062 128.601C287.502 129.842 286.658 130.86 285.528 131.653C284.399 132.437 283.134 132.829 281.734 132.829ZM277.17 124.471H286.298C286.224 123.687 285.972 122.973 285.542 122.329C285.113 121.676 284.567 121.153 283.904 120.761C283.242 120.369 282.518 120.173 281.734 120.173C280.95 120.173 280.232 120.364 279.578 120.747C278.925 121.13 278.384 121.648 277.954 122.301C277.534 122.945 277.273 123.668 277.17 124.471ZM296.045 125.927C296.045 124.966 296.283 124.084 296.759 123.281C297.244 122.478 297.912 121.844 298.761 121.377C299.302 121.097 299.727 120.682 300.035 120.131C300.343 119.571 300.497 118.96 300.497 118.297C300.497 117.653 300.338 117.07 300.021 116.547C299.713 116.024 299.293 115.609 298.761 115.301C298.238 114.993 297.66 114.839 297.025 114.839C296.39 114.839 295.807 114.993 295.275 115.301C294.752 115.609 294.337 116.024 294.029 116.547C293.721 117.07 293.567 117.653 293.567 118.297H291.215C291.215 117.224 291.476 116.248 291.999 115.371C292.522 114.494 293.222 113.794 294.099 113.271C294.986 112.748 295.961 112.487 297.025 112.487C298.098 112.487 299.074 112.748 299.951 113.271C300.838 113.794 301.542 114.494 302.065 115.371C302.588 116.248 302.849 117.224 302.849 118.297C302.849 119.389 302.583 120.397 302.051 121.321C301.519 122.245 300.791 122.959 299.867 123.463C299.41 123.706 299.05 124.046 298.789 124.485C298.528 124.914 298.397 125.395 298.397 125.927H296.045ZM297.221 132.829C296.857 132.829 296.549 132.703 296.297 132.451C296.045 132.19 295.919 131.882 295.919 131.527C295.919 131.172 296.045 130.874 296.297 130.631C296.549 130.379 296.857 130.253 297.221 130.253C297.576 130.253 297.879 130.379 298.131 130.631C298.383 130.874 298.509 131.172 298.509 131.527C298.509 131.882 298.383 132.19 298.131 132.451C297.879 132.703 297.576 132.829 297.221 132.829Z" fill="#2C652E"/>
</svg>
