<svg width="14" height="14" viewBox="0 0 14 14" fill="none" xmlns="http://www.w3.org/2000/svg">
<g clip-path="url(#clip0_1357_4952)">
<path d="M1.45854 7.29187L4.66687 8.45854L4.08354 10.5002L4.66687 12.2502M9.91687 11.9585L9.6252 10.5002L8.16687 9.91687V7.8752L9.91687 7.29187L12.5419 7.58354M11.0835 3.20854L10.7919 4.08354L8.7502 4.3752V6.1252L10.2085 5.54187H11.3752L12.5419 6.1252M1.45854 6.1252L2.91687 4.95854L4.3752 4.66687L5.54187 2.91687L4.95854 1.7502M7.0002 12.8335C10.222 12.8335 12.8335 10.222 12.8335 7.0002C12.8335 3.77845 10.222 1.16687 7.0002 1.16687C3.77845 1.16687 1.16687 3.77845 1.16687 7.0002C1.16687 10.222 3.77845 12.8335 7.0002 12.8335Z" stroke="#5C5C5C" stroke-width="1.5" stroke-linecap="round" stroke-linejoin="round"/>
</g>
<defs>
<clipPath id="clip0_1357_4952">
<rect width="14" height="14" fill="white"/>
</clipPath>
</defs>
</svg>
