<svg width="49" height="51" viewBox="0 0 49 51" fill="none" xmlns="http://www.w3.org/2000/svg">
<path d="M0.25 24.25C0.25 10.9952 10.9952 0.25 24.25 0.25C37.5048 0.25 48.25 10.9952 48.25 24.25C48.25 37.5048 37.5048 48.25 24.25 48.25C10.9952 48.25 0.25 37.5048 0.25 24.25Z" fill="#7D52F4"/>
<path d="M0 24.25C0 10.8571 10.8571 0 24.25 0C37.6429 0 48.5 10.8571 48.5 24.25H48C48 11.1332 37.3668 0.5 24.25 0.5C11.1332 0.5 0.5 11.1332 0.5 24.25H0ZM48.5 26C48.5 39.3929 37.6429 50.25 24.25 50.25C10.8571 50.25 0 39.3929 0 26L0.5 24.25C0.5 36.4003 11.1332 46.25 24.25 46.25C37.3668 46.25 48 36.4003 48 24.25L48.5 26ZM24.25 50.25C10.8571 50.25 0 39.3929 0 26V24.25C0 10.8571 10.8571 0 24.25 0V0.5C11.1332 0.5 0.5 11.1332 0.5 24.25C0.5 36.4003 11.1332 46.25 24.25 46.25V50.25ZM24.25 0C37.6429 0 48.5 10.8571 48.5 24.25V26C48.5 39.3929 37.6429 50.25 24.25 50.25V46.25C37.3668 46.25 48 36.4003 48 24.25C48 11.1332 37.3668 0.5 24.25 0.5V0Z" fill="#171717"/>
<path d="M15.2502 17.2503H33.2502M15.2502 24.2503H33.2502M15.2502 31.2503H33.2502" stroke="#EFEBFF" stroke-width="1.5" stroke-linecap="round" stroke-linejoin="round"/>
</svg>
