<svg width="550" height="495" viewBox="0 0 550 495" fill="none" xmlns="http://www.w3.org/2000/svg">
<path fill-rule="evenodd" clip-rule="evenodd" d="M145.745 62.0335H139.074C135.437 62.986 132.124 63.9375 129.069 64.9269C113.258 70.0477 104.352 76.1816 93.0496 88.7145C91.3156 90.9253 89.7675 93.1371 88.3921 95.3847C83.277 103.744 80.5507 112.597 79.5364 123.733C78.9021 130.699 78.9375 138.557 79.4772 147.746C79.6224 150.218 79.8041 152.787 80.0191 155.46C80.034 155.645 79.9657 155.834 79.8414 155.972C54.3934 184.221 102.729 230.714 138.281 227.83C138.588 227.805 138.889 227.732 139.177 227.621C188.061 208.852 237.497 220.975 249.801 172.426C251.521 167.675 251.916 164.502 251.468 157.752C245.177 148.352 244.707 143.146 249.801 134.406C248.014 132.734 246.47 130.842 245.19 128.815C239.06 119.109 238.962 106.297 247.133 99.7204L245.19 96.0518C244.123 97.233 243.021 98.42 241.885 99.6124C241.647 99.8626 241.256 99.8879 240.987 99.6714L228.973 90.0223L199.705 66.5163C199.389 66.2624 199.371 65.7876 199.666 65.51L202.302 63.034C195.13 61.8635 191.35 61.2048 184.432 60.0324H180.097C178.169 71.0455 157.149 79.1038 148.935 70.1343C151.511 73.5299 152.379 79.0245 150.826 84.6377C148.572 92.7835 142.074 98.0945 136.311 96.5002C130.549 94.906 127.704 87.0102 129.958 78.8644C132.211 70.7187 138.709 65.4077 144.472 67.0019C145.963 67.4144 147.259 68.2486 148.321 69.3998C147.593 68.4454 146.992 67.3283 146.548 66.0356C146.142 64.852 145.867 63.5212 145.745 62.0335ZM129.146 126.123C133.599 126.86 138.177 121.623 139.369 114.425C140.562 107.227 137.918 100.794 133.465 100.056C129.011 99.3181 124.434 104.555 123.241 111.753C122.049 118.951 124.692 125.385 129.146 126.123ZM170.396 108.018C175.195 103.993 177.079 98.3391 174.604 95.3894C172.13 92.4397 166.235 93.3112 161.437 97.3358C156.639 101.36 154.755 107.014 157.229 109.964C159.703 112.914 165.598 112.042 170.396 108.018ZM190.87 86.9891C192.63 85.5126 193.255 83.3592 192.265 82.1793C191.276 80.9995 189.046 81.2399 187.286 82.7164C185.526 84.1928 184.901 86.3462 185.891 87.5261C186.881 88.706 189.11 88.4656 190.87 86.9891ZM174.159 84.2396C177.984 81.0314 179.634 76.7012 177.844 74.5678C176.055 72.4343 171.503 73.3056 167.679 76.5137C163.854 79.7219 162.204 84.0522 163.993 86.1856C165.783 88.3191 170.334 87.4478 174.159 84.2396ZM160.915 91.5321C161.997 90.5516 162.385 89.2169 161.781 88.5509C161.178 87.885 159.812 88.1399 158.73 89.1204C157.648 90.1008 157.26 91.4355 157.863 92.1015C158.467 92.7675 159.833 92.5125 160.915 91.5321ZM188.263 75.6199C190.786 73.5042 191.875 70.6505 190.697 69.2459C189.519 67.8413 186.519 68.4178 183.997 70.5335C181.475 72.6492 180.385 75.5029 181.563 76.9075C182.741 78.3121 185.741 77.7356 188.263 75.6199ZM180.198 93.6593C181.958 92.1829 182.583 90.0295 181.593 88.8496C180.603 87.6697 178.374 87.9102 176.614 89.3866C174.854 90.8631 174.229 93.0165 175.219 94.1964C176.208 95.3763 178.438 95.1358 180.198 93.6593ZM118.393 143.902C119.618 143.65 120.35 142.179 120.028 140.618C119.706 139.058 118.452 137.997 117.227 138.25C116.002 138.503 115.27 139.973 115.592 141.534C115.914 143.095 117.168 144.155 118.393 143.902ZM130.546 161.424C132.282 161.516 133.79 159.686 133.915 157.337C134.04 154.987 132.733 153.008 130.997 152.916C129.26 152.824 127.752 154.654 127.627 157.003C127.503 159.353 128.809 161.332 130.546 161.424ZM125.334 145.442C127.139 145.793 129.042 143.826 129.583 141.046C130.125 138.267 129.101 135.728 127.296 135.376C125.491 135.024 123.588 136.992 123.047 139.772C122.505 142.551 123.529 145.09 125.334 145.442ZM119.681 134.619C121.611 134.449 122.96 131.869 122.695 128.856C122.429 125.842 120.65 123.538 118.72 123.708C116.79 123.878 115.441 126.458 115.706 129.471C115.972 132.484 117.751 134.789 119.681 134.619ZM132.462 134.655C133.72 135.807 136.209 135.136 138.022 133.156C139.835 131.177 140.285 128.638 139.028 127.487C137.77 126.335 135.281 127.006 133.468 128.985C131.655 130.964 131.205 133.503 132.462 134.655ZM136.068 145.2C137.538 146.547 140.375 145.843 142.404 143.628C144.433 141.413 144.886 138.525 143.416 137.178C141.945 135.831 139.108 136.535 137.079 138.75C135.05 140.966 134.597 143.853 136.068 145.2ZM143.698 121.97C144.963 123.128 147.453 122.467 149.26 120.494C151.068 118.52 151.508 115.982 150.244 114.824C148.98 113.666 146.49 114.327 144.682 116.301C142.875 118.274 142.434 120.812 143.698 121.97ZM144.746 105.871C146.589 107.559 150.016 106.816 152.402 104.211C154.787 101.607 155.227 98.1276 153.384 96.4398C151.541 94.7519 148.114 95.4949 145.728 98.0992C143.343 100.703 142.903 104.183 144.746 105.871ZM122.232 83.7478C124.165 84.5723 126.708 82.9536 127.911 80.1325C129.114 77.3114 128.521 74.356 126.588 73.5316C124.654 72.7072 122.112 74.3258 120.909 77.1469C119.706 79.968 120.298 82.9234 122.232 83.7478ZM126.483 101.351C128.11 100.158 128.054 97.3163 126.358 95.0046C124.663 92.6929 121.969 91.7863 120.342 92.9797C118.715 94.173 118.771 97.0145 120.467 99.3262C122.162 101.638 124.856 102.544 126.483 101.351ZM112.98 88.0177C115.043 87.8998 116.598 85.7682 116.455 83.2566C116.311 80.745 114.523 78.8046 112.46 78.9225C110.397 79.0405 108.842 81.1721 108.985 83.6836C109.129 86.1952 110.917 88.1356 112.98 88.0177ZM113.844 157.645C114.829 157.893 115.917 156.951 116.273 155.539C116.63 154.127 116.12 152.781 115.135 152.532C114.149 152.284 113.062 153.226 112.705 154.638C112.349 156.05 112.859 157.396 113.844 157.645ZM122.265 152.949C123.26 152.743 123.828 151.421 123.534 149.995C123.24 148.569 122.194 147.579 121.199 147.785C120.204 147.99 119.636 149.312 119.93 150.738C120.225 152.165 121.27 153.154 122.265 152.949ZM114.11 109.499C116.516 107.978 116.387 103.455 113.822 99.3974C111.258 95.3392 107.228 93.2822 104.822 94.8028C102.416 96.3234 102.545 100.846 105.109 104.904C107.674 108.962 111.704 111.019 114.11 109.499ZM235.513 128.076C236.221 128.053 236.77 127.296 236.741 126.384C236.712 125.473 236.115 124.752 235.407 124.775C234.7 124.798 234.15 125.555 234.179 126.466C234.208 127.378 234.805 128.098 235.513 128.076ZM232.332 135.015C233.718 134.514 234.461 133.055 233.991 131.756C233.522 130.456 232.018 129.809 230.632 130.31C229.246 130.81 228.503 132.269 228.973 133.569C229.442 134.868 230.946 135.515 232.332 135.015ZM229.936 148.429C231.322 147.929 231.634 145.276 230.632 142.504C229.631 139.732 227.696 137.891 226.31 138.392C224.924 138.893 224.612 141.545 225.613 144.317C226.615 147.089 228.55 148.93 229.936 148.429ZM238.335 145.02C239.721 144.519 240.464 143.06 239.995 141.761C239.525 140.462 238.021 139.814 236.635 140.315C235.25 140.816 234.507 142.275 234.976 143.574C235.445 144.873 236.949 145.521 238.335 145.02ZM241.67 169.033C243.056 168.532 243.799 167.073 243.33 165.774C242.86 164.475 241.356 163.827 239.971 164.328C238.585 164.829 237.842 166.288 238.311 167.587C238.78 168.886 240.284 169.534 241.67 169.033ZM227.434 165.812C228.439 165.779 229.217 164.634 229.173 163.253C229.129 161.873 228.279 160.779 227.274 160.812C226.269 160.844 225.491 161.989 225.535 163.37C225.579 164.751 226.429 165.844 227.434 165.812ZM224.841 154.09C225.548 154.067 226.098 153.31 226.069 152.398C226.04 151.487 225.442 150.766 224.735 150.789C224.027 150.812 223.477 151.569 223.507 152.48C223.536 153.392 224.133 154.112 224.841 154.09ZM234.126 160.086C236.336 160.086 238.128 158.294 238.128 156.084C238.128 153.874 236.336 152.082 234.126 152.082C231.916 152.082 230.124 153.874 230.124 156.084C230.124 158.294 231.916 160.086 234.126 160.086ZM206.486 181.425C214.603 179.751 220.344 174.319 219.307 169.292C218.27 164.266 210.849 161.549 202.731 163.224C194.613 164.899 188.873 170.331 189.91 175.357C190.946 180.383 198.368 183.1 206.486 181.425ZM81.1337 171.356C84.9994 172.072 88.6252 169.996 89.2322 166.719C89.8392 163.441 87.1976 160.204 83.332 159.488C79.4664 158.772 75.8406 160.848 75.2335 164.126C74.6265 167.403 77.2681 170.64 81.1337 171.356Z" fill="#6C52E0"/>
<path fill-rule="evenodd" clip-rule="evenodd" d="M120.398 1.66761C106.057 1.66761 79.709 44.6908 93.0496 88.7145C104.352 76.1816 113.258 70.0477 129.069 64.9269C120.654 45.4442 118.723 31.6754 120.398 1.66761ZM107.233 30.472C109.356 31.1096 112.331 27.4527 113.877 22.304C115.423 17.1553 114.956 12.4646 112.833 11.8269C110.71 11.1893 107.735 14.8463 106.189 19.9949C104.642 25.1436 105.11 29.8344 107.233 30.472ZM107.654 67.0519C109.813 66.5522 109.992 59.3507 108.052 50.967C106.445 44.0236 107.55 35.8532 105.39 36.3529C103.23 36.8525 99.7816 44.6448 101.721 53.0286C103.661 61.4123 105.494 67.5515 107.654 67.0519Z" fill="#FFDC51"/>
<path d="M139.074 62.0335C126.401 44.6908 131.737 2.33464 120.398 1.66761C118.723 31.6754 120.654 45.4442 129.069 64.9269C132.124 63.9375 135.437 62.986 139.074 62.0335Z" fill="#E6B800"/>
<path fill-rule="evenodd" clip-rule="evenodd" d="M268.458 0.521915C257.257 -0.936643 235.831 32.8043 210.113 55.6967L202.302 63.034L199.666 65.51C199.371 65.7876 199.389 66.2624 199.705 66.5163L228.973 90.0223C257.756 63.8269 266.765 44.5679 268.458 0.521915ZM238.623 44.0365C239.823 44.7662 241.798 43.7095 243.035 41.6763C244.271 39.6431 244.3 37.4034 243.1 36.6736C241.899 35.9439 239.924 37.0006 238.688 39.0338C237.452 41.067 237.423 43.3068 238.623 44.0365ZM259.708 10.931C257.239 9.68302 252.901 13.2944 250.018 18.9971C247.136 24.6999 246.8 30.3346 249.268 31.5825C251.737 32.8305 256.075 29.2191 258.958 23.5163C261.841 17.8136 262.177 12.1789 259.708 10.931ZM218.322 65.7489C219.54 66.8583 224.819 63.0454 230.114 57.2325C235.408 51.4196 238.712 45.808 237.494 44.6985C236.276 43.5891 230.997 47.402 225.703 53.2149C220.408 59.0278 217.104 64.6394 218.322 65.7489Z" fill="#FFDC51"/>
<path d="M245.19 96.0518C287.82 48.8636 276.075 10.8417 273.48 5.00274C272.161 2.18854 270.475 0.784554 268.458 0.521915C266.765 44.5679 257.756 63.8269 228.973 90.0223L240.987 99.6714C241.256 99.8879 241.647 99.8626 241.885 99.6124C243.021 98.42 244.123 97.233 245.19 96.0518Z" fill="#E6B800"/>
<path fill-rule="evenodd" clip-rule="evenodd" d="M291.824 84.0567C281.902 84.592 263.655 93.6252 247.133 99.7204C238.962 106.297 239.06 119.109 245.19 128.815C274.521 117.872 286.092 108.87 291.824 84.0567ZM285.031 92.0038C284.236 90.1621 280.095 90.179 275.781 92.0416C271.467 93.9041 268.614 96.907 269.409 98.7487C270.204 100.59 274.346 100.573 278.66 98.7109C282.974 96.8483 285.827 93.8455 285.031 92.0038Z" fill="#FFDC51"/>
<path d="M268.477 127.402C284.569 117.364 295.492 103.056 296.826 99.7204C301.694 87.5506 298.841 83.6781 291.824 84.0567C286.092 108.87 274.521 117.872 245.19 128.815C246.47 130.842 248.014 132.734 249.801 134.406L268.477 127.402Z" fill="#E6B800"/>
<path fill-rule="evenodd" clip-rule="evenodd" d="M268.477 127.402L249.801 134.406C276.359 143.624 286.18 142.492 295.159 129.879C290.906 127.03 282.326 125.715 268.477 127.402ZM286.875 133.607C286.419 131.654 282.34 130.935 277.764 132.003C273.188 133.07 269.848 135.519 270.304 137.473C270.759 139.427 274.838 140.145 279.414 139.077C283.99 138.01 287.33 135.561 286.875 133.607Z" fill="#FFDC51"/>
<path d="M249.801 134.406C244.707 143.146 245.177 148.352 251.468 157.752C254.583 157.707 257.59 157.505 260.473 157.169C289.306 153.808 305.819 137.022 295.159 129.879C286.18 142.492 276.359 143.624 249.801 134.406Z" fill="#E6B800"/>
<path d="M250.018 18.9971C252.901 13.2944 257.239 9.68302 259.708 10.931C262.177 12.1789 261.841 17.8136 258.958 23.5163C256.075 29.2191 251.737 32.8305 249.268 31.5825C246.8 30.3346 247.136 24.6999 250.018 18.9971Z" fill="#FFEB99"/>
<path d="M230.114 57.2325C224.819 63.0454 219.54 66.8583 218.322 65.7489C217.104 64.6394 220.408 59.0278 225.703 53.2149C230.997 47.402 236.276 43.5891 237.494 44.6985C238.712 45.808 235.408 51.4196 230.114 57.2325Z" fill="#FFEB99"/>
<path d="M243.035 41.6763C241.798 43.7095 239.823 44.7662 238.623 44.0365C237.423 43.3068 237.452 41.067 238.688 39.0338C239.924 37.0006 241.899 35.9439 243.1 36.6736C244.3 37.4034 244.271 39.6431 243.035 41.6763Z" fill="#FFEB99"/>
<path d="M277.764 132.003C282.34 130.935 286.419 131.654 286.875 133.607C287.33 135.561 283.99 138.01 279.414 139.077C274.838 140.145 270.759 139.427 270.304 137.473C269.848 135.519 273.188 133.07 277.764 132.003Z" fill="#FFEB99"/>
<path d="M275.781 92.0416C280.095 90.179 284.236 90.1621 285.031 92.0038C285.827 93.8455 282.974 96.8483 278.66 98.7109C274.346 100.573 270.204 100.59 269.409 98.7487C268.614 96.907 271.467 93.9041 275.781 92.0416Z" fill="#FFEB99"/>
<path d="M108.052 50.967C109.992 59.3507 109.813 66.5522 107.654 67.0519C105.494 67.5515 103.661 61.4123 101.721 53.0286C99.7816 44.6448 103.23 36.8525 105.39 36.3529C107.55 35.8532 106.445 44.0236 108.052 50.967Z" fill="#FFEB99"/>
<path d="M113.877 22.304C112.331 27.4527 109.356 31.1096 107.233 30.472C105.11 29.8344 104.642 25.1436 106.189 19.9949C107.735 14.8463 110.71 11.1893 112.833 11.8269C114.956 12.4646 115.423 17.1553 113.877 22.304Z" fill="#FFEB99"/>
<path d="M73.9745 87.1591C76.2158 91.0891 76.8654 94.9407 75.4254 95.762C73.9854 96.5832 71.0011 94.0632 68.7597 90.1332C66.5184 86.2032 65.8688 82.3516 67.3088 81.5303C68.7488 80.7091 71.7331 83.2292 73.9745 87.1591Z" fill="#FFEB99"/>
<path d="M67.2849 121.453C69.4785 123.325 70.6715 125.528 69.9497 126.374C69.2279 127.219 66.8645 126.388 64.671 124.516C62.4775 122.644 61.2844 120.441 62.0062 119.595C62.728 118.75 65.0914 119.581 67.2849 121.453Z" fill="#FFEB99"/>
<path fill-rule="evenodd" clip-rule="evenodd" d="M79.5364 123.733C80.5507 112.597 83.277 103.744 88.3921 95.3847C59.3124 49.4865 51.0173 93.4235 72.8936 117.73C74.8615 119.917 77.0735 121.944 79.5364 123.733ZM75.4254 95.762C76.8654 94.9407 76.2158 91.0891 73.9745 87.1591C71.7331 83.2292 68.7488 80.7091 67.3088 81.5303C65.8688 82.3516 66.5184 86.2032 68.7597 90.1332C71.0011 94.0632 73.9854 96.5832 75.4254 95.762Z" fill="#FFDC51"/>
<path fill-rule="evenodd" clip-rule="evenodd" d="M79.5364 123.733C77.0735 121.944 74.8615 119.917 72.8936 117.73C53.0283 107.725 45.024 126.735 79.4772 147.746C78.9375 138.557 78.9021 130.699 79.5364 123.733ZM69.9497 126.374C70.6715 125.528 69.4785 123.325 67.2849 121.453C65.0914 119.581 62.728 118.75 62.0062 119.595C61.2844 120.441 62.4775 122.644 64.671 124.516C66.8645 126.388 69.2279 127.219 69.9497 126.374Z" fill="#FFDC51"/>
<path d="M136.311 96.5002C142.074 98.0945 148.572 92.7835 150.826 84.6377C152.379 79.0245 151.511 73.5299 148.935 70.1343C148.722 69.9011 148.517 69.6563 148.321 69.3998C147.259 68.2486 145.963 67.4144 144.472 67.0019C138.709 65.4077 132.211 70.7187 129.958 78.8644C127.704 87.0102 130.549 94.906 136.311 96.5002Z" fill="#FFDC51"/>
<path d="M139.369 114.425C138.177 121.623 133.599 126.86 129.146 126.123C124.692 125.385 122.049 118.951 123.241 111.753C124.434 104.555 129.011 99.3181 133.465 100.056C137.918 100.794 140.562 107.227 139.369 114.425Z" fill="#FFDC51"/>
<path fill-rule="evenodd" clip-rule="evenodd" d="M174.604 37.5891C166.706 26.9232 152.367 34.8335 145.745 62.0335C145.867 63.5212 146.142 64.852 146.548 66.0356C148.949 68.7037 175.219 76.041 174.604 37.5891ZM156.025 47.9565C156.902 48.6286 159.198 47.105 161.152 44.5537C163.106 42.0023 163.979 39.3892 163.102 38.7172C162.225 38.0451 159.929 39.5686 157.975 42.12C156.021 44.6714 155.148 47.2845 156.025 47.9565Z" fill="#20BDC5"/>
<path d="M180.097 60.0324C180 49.4603 177.843 41.9628 174.604 37.5891C175.219 76.041 148.949 68.7037 146.548 66.0356C146.992 67.3283 147.593 68.4454 148.321 69.3998C148.535 69.632 148.74 69.8771 148.935 70.1343C157.149 79.1038 178.169 71.0455 180.097 60.0324Z" fill="#1CA8B0"/>
<path fill-rule="evenodd" clip-rule="evenodd" d="M210.113 55.6967C205.925 39.4592 191.769 41.6892 184.432 60.0324C191.35 61.2048 195.13 61.8635 202.302 63.034L210.113 55.6967ZM191.524 51.8848C191.94 52.5467 193.813 52.117 195.708 50.9251C197.602 49.7332 198.8 48.2303 198.384 47.5685C197.967 46.9066 196.094 47.3363 194.2 48.5282C192.305 49.7202 191.107 51.223 191.524 51.8848Z" fill="#20BDC5"/>
<path d="M161.152 44.5537C159.198 47.105 156.902 48.6286 156.025 47.9565C155.148 47.2845 156.021 44.6714 157.975 42.12C159.929 39.5686 162.225 38.0451 163.102 38.7172C163.979 39.3892 163.106 42.0023 161.152 44.5537Z" fill="#BDF2F4"/>
<path d="M195.708 50.9251C193.813 52.117 191.94 52.5467 191.524 51.8848C191.107 51.223 192.305 49.7202 194.2 48.5282C196.094 47.3363 197.967 46.9066 198.384 47.5685C198.8 48.2303 197.602 49.7332 195.708 50.9251Z" fill="#BDF2F4"/>
<path d="M260.473 157.169C257.59 157.505 254.583 157.707 251.468 157.752C251.916 164.502 251.521 167.675 249.801 172.426C264.809 172.76 266.888 165.746 260.473 157.169Z" fill="#1CA8B0"/>
<path d="M219.307 169.292C220.344 174.319 214.603 179.751 206.486 181.425C198.368 183.1 190.946 180.383 189.91 175.357C188.873 170.331 194.613 164.899 202.731 163.224C210.849 161.549 218.27 164.266 219.307 169.292Z" fill="#FF66C2"/>
<path d="M89.2322 166.719C88.6252 169.996 84.9994 172.072 81.1337 171.356C77.2681 170.64 74.6265 167.403 75.2335 164.126C75.8406 160.848 79.4664 158.772 83.332 159.488C87.1976 160.204 89.8392 163.441 89.2322 166.719Z" fill="#FF66C2"/>
<path d="M174.604 95.3894C177.079 98.3391 175.195 103.993 170.396 108.018C165.598 112.042 159.703 112.914 157.229 109.964C154.755 107.014 156.639 101.36 161.437 97.3358C166.235 93.3112 172.13 92.4397 174.604 95.3894Z" fill="#CABFF7"/>
<path d="M177.844 74.5678C179.634 76.7012 177.984 81.0314 174.159 84.2396C170.334 87.4478 165.783 88.3191 163.993 86.1856C162.204 84.0522 163.854 79.7219 167.679 76.5137C171.503 73.3056 176.055 72.4343 177.844 74.5678Z" fill="#CABFF7"/>
<path d="M190.697 69.2459C191.875 70.6505 190.786 73.5042 188.263 75.6199C185.741 77.7356 182.741 78.3121 181.563 76.9075C180.385 75.5029 181.475 72.6492 183.997 70.5335C186.519 68.4178 189.519 67.8413 190.697 69.2459Z" fill="#CABFF7"/>
<path d="M192.265 82.1793C193.255 83.3592 192.63 85.5126 190.87 86.9891C189.11 88.4656 186.881 88.706 185.891 87.5261C184.901 86.3462 185.526 84.1928 187.286 82.7164C189.046 81.2399 191.276 80.9995 192.265 82.1793Z" fill="#CABFF7"/>
<path d="M181.593 88.8496C182.583 90.0295 181.958 92.1829 180.198 93.6593C178.438 95.1358 176.208 95.3763 175.219 94.1964C174.229 93.0165 174.854 90.8631 176.614 89.3866C178.374 87.9102 180.603 87.6697 181.593 88.8496Z" fill="#CABFF7"/>
<path d="M161.781 88.5509C162.385 89.2169 161.997 90.5516 160.915 91.5321C159.833 92.5125 158.467 92.7675 157.863 92.1015C157.26 91.4355 157.648 90.1008 158.73 89.1204C159.812 88.1399 161.178 87.885 161.781 88.5509Z" fill="#CABFF7"/>
<path d="M152.402 104.211C150.016 106.816 146.589 107.559 144.746 105.871C142.903 104.183 143.343 100.703 145.728 98.0992C148.114 95.4949 151.541 94.7519 153.384 96.4398C155.227 98.1276 154.787 101.607 152.402 104.211Z" fill="#CABFF7"/>
<path d="M149.26 120.494C147.453 122.467 144.963 123.128 143.698 121.97C142.434 120.812 142.875 118.274 144.682 116.301C146.49 114.327 148.98 113.666 150.244 114.824C151.508 115.982 151.068 118.52 149.26 120.494Z" fill="#CABFF7"/>
<path d="M127.911 80.1325C126.708 82.9536 124.165 84.5723 122.232 83.7478C120.298 82.9234 119.706 79.968 120.909 77.1469C122.112 74.3258 124.654 72.7072 126.588 73.5316C128.521 74.356 129.114 77.3114 127.911 80.1325Z" fill="#CABFF7"/>
<path d="M116.455 83.2566C116.598 85.7682 115.043 87.8998 112.98 88.0177C110.917 88.1356 109.129 86.1952 108.985 83.6836C108.842 81.1721 110.397 79.0405 112.46 78.9225C114.523 78.8046 116.311 80.745 116.455 83.2566Z" fill="#CABFF7"/>
<path d="M113.822 99.3974C116.387 103.455 116.516 107.978 114.11 109.499C111.704 111.019 107.674 108.962 105.109 104.904C102.545 100.846 102.416 96.3234 104.822 94.8028C107.228 93.2822 111.258 95.3392 113.822 99.3974Z" fill="#CABFF7"/>
<path d="M126.358 95.0046C128.054 97.3163 128.11 100.158 126.483 101.351C124.856 102.544 122.162 101.638 120.467 99.3262C118.771 97.0145 118.715 94.173 120.342 92.9797C121.969 91.7863 124.663 92.6929 126.358 95.0046Z" fill="#CABFF7"/>
<path d="M122.695 128.856C122.96 131.869 121.611 134.449 119.681 134.619C117.751 134.789 115.972 132.484 115.706 129.471C115.441 126.458 116.79 123.878 118.72 123.708C120.65 123.538 122.429 125.842 122.695 128.856Z" fill="#CABFF7"/>
<path d="M129.583 141.046C129.042 143.826 127.139 145.793 125.334 145.442C123.529 145.09 122.505 142.551 123.047 139.772C123.588 136.992 125.491 135.024 127.296 135.376C129.101 135.728 130.125 138.267 129.583 141.046Z" fill="#CABFF7"/>
<path d="M138.022 133.156C136.209 135.136 133.72 135.807 132.462 134.655C131.205 133.503 131.655 130.964 133.468 128.985C135.281 127.006 137.77 126.335 139.028 127.487C140.285 128.638 139.835 131.177 138.022 133.156Z" fill="#CABFF7"/>
<path d="M142.404 143.628C140.375 145.843 137.538 146.547 136.068 145.2C134.597 143.853 135.05 140.966 137.079 138.75C139.108 136.535 141.945 135.831 143.416 137.178C144.886 138.525 144.433 141.413 142.404 143.628Z" fill="#CABFF7"/>
<path d="M120.028 140.618C120.35 142.179 119.618 143.65 118.393 143.902C117.168 144.155 115.914 143.095 115.592 141.534C115.27 139.973 116.002 138.503 117.227 138.25C118.452 137.997 119.706 139.058 120.028 140.618Z" fill="#CABFF7"/>
<path d="M116.273 155.539C115.917 156.951 114.829 157.893 113.844 157.645C112.859 157.396 112.349 156.05 112.705 154.638C113.062 153.226 114.149 152.284 115.135 152.532C116.12 152.781 116.63 154.127 116.273 155.539Z" fill="#CABFF7"/>
<path d="M123.534 149.995C123.828 151.421 123.26 152.743 122.265 152.949C121.27 153.154 120.225 152.165 119.93 150.738C119.636 149.312 120.204 147.99 121.199 147.785C122.194 147.579 123.24 148.569 123.534 149.995Z" fill="#CABFF7"/>
<path d="M133.915 157.337C133.79 159.686 132.282 161.516 130.546 161.424C128.809 161.332 127.503 159.353 127.627 157.003C127.752 154.654 129.26 152.824 130.997 152.916C132.733 153.008 134.04 154.987 133.915 157.337Z" fill="#CABFF7"/>
<path d="M238.128 156.084C238.128 158.294 236.336 160.086 234.126 160.086C231.916 160.086 230.124 158.294 230.124 156.084C230.124 153.874 231.916 152.082 234.126 152.082C236.336 152.082 238.128 153.874 238.128 156.084Z" fill="#261089"/>
<path d="M230.632 142.504C231.634 145.276 231.322 147.929 229.936 148.429C228.55 148.93 226.615 147.089 225.613 144.317C224.612 141.545 224.924 138.893 226.31 138.392C227.696 137.891 229.631 139.732 230.632 142.504Z" fill="#261089"/>
<path d="M233.991 131.756C234.461 133.055 233.718 134.514 232.332 135.015C230.946 135.515 229.442 134.868 228.973 133.569C228.503 132.269 229.246 130.81 230.632 130.31C232.018 129.809 233.522 130.456 233.991 131.756Z" fill="#261089"/>
<path d="M236.741 126.384C236.77 127.296 236.221 128.053 235.513 128.076C234.805 128.098 234.208 127.378 234.179 126.466C234.15 125.555 234.7 124.798 235.407 124.775C236.115 124.752 236.712 125.473 236.741 126.384Z" fill="#261089"/>
<path d="M239.995 141.761C240.464 143.06 239.721 144.519 238.335 145.02C236.949 145.521 235.445 144.873 234.976 143.574C234.507 142.275 235.25 140.816 236.635 140.315C238.021 139.814 239.525 140.462 239.995 141.761Z" fill="#261089"/>
<path d="M243.33 165.774C243.799 167.073 243.056 168.532 241.67 169.033C240.284 169.534 238.78 168.886 238.311 167.587C237.842 166.288 238.585 164.829 239.971 164.328C241.356 163.827 242.86 164.475 243.33 165.774Z" fill="#261089"/>
<path d="M229.173 163.253C229.217 164.634 228.439 165.779 227.434 165.812C226.429 165.844 225.579 164.751 225.535 163.37C225.491 161.989 226.269 160.844 227.274 160.812C228.279 160.779 229.129 161.873 229.173 163.253Z" fill="#261089"/>
<path d="M226.069 152.398C226.098 153.31 225.548 154.067 224.841 154.09C224.133 154.112 223.536 153.392 223.507 152.48C223.477 151.569 224.027 150.812 224.735 150.789C225.442 150.766 226.04 151.487 226.069 152.398Z" fill="#261089"/>
<path d="M205.566 161.997C205.728 161.988 205.877 161.921 205.992 161.806C210.217 157.606 212.962 152.197 213.825 146.365C214.699 140.451 213.59 134.42 210.664 129.172C207.738 123.924 203.151 119.742 197.589 117.25C192.027 114.758 185.789 114.091 179.807 115.347C173.824 116.603 168.419 119.716 164.398 124.22C160.377 128.724 157.956 134.378 157.498 140.337C157.04 146.295 158.568 152.239 161.855 157.279C165.084 162.23 168.185 166.599 173.293 169.281C173.468 169.373 173.671 169.381 173.853 169.304C175.256 168.714 181.614 166.078 186.848 164.585C182.166 165.562 178.003 166.091 176.672 165.456C172.427 163.421 168.704 160.085 166.09 155.75C163.422 151.325 163.383 145.569 163.755 140.337C164.127 135.105 165.565 131.473 168.829 127.519C172.093 123.564 176.481 120.83 181.337 119.727C186.194 118.624 191.258 119.21 195.772 121.398C200.287 123.586 203.437 126.462 205.813 131.07C208.188 135.678 209.489 139.982 208.779 145.175C208.08 150.289 207.199 155.733 203.777 159.419C203.052 160.199 197.393 162.046 191.391 163.541C197.121 162.516 204.169 162.077 205.566 161.997Z" fill="white"/>
<path fill-rule="evenodd" clip-rule="evenodd" d="M203.777 159.419C207.199 155.733 208.08 150.289 208.779 145.175C209.489 139.982 208.188 135.678 205.813 131.07C203.437 126.462 200.287 123.586 195.772 121.398C191.258 119.21 186.194 118.624 181.337 119.727C176.481 120.83 172.093 123.564 168.829 127.519C165.565 131.473 164.127 135.105 163.755 140.337C163.383 145.569 163.422 151.325 166.09 155.75C168.704 160.085 172.427 163.421 176.672 165.456C178.003 166.091 182.166 165.562 186.848 164.585C187.498 164.4 188.13 164.232 188.734 164.088C189.565 163.89 190.46 163.708 191.391 163.541C197.393 162.046 203.052 160.199 203.777 159.419ZM168.091 144.077C168.091 140.081 169.392 136.39 171.594 133.402C171.068 132.646 170.759 131.728 170.759 130.737C170.759 128.158 172.849 126.067 175.428 126.067C176.789 126.067 178.014 126.65 178.868 127.579C181.081 126.607 183.528 126.067 186.101 126.067C196.047 126.067 204.11 134.131 204.11 144.077C204.11 147.086 203.373 149.922 202.068 152.415C199.06 158.164 193.038 162.087 186.101 162.087C179.836 162.087 174.319 158.889 171.092 154.036C169.196 151.183 168.091 147.759 168.091 144.077Z" fill="#E5B800"/>
<path d="M175.428 135.406C178.007 135.406 180.097 133.315 180.097 130.737C180.097 129.519 179.631 128.41 178.868 127.579C175.961 128.855 173.456 130.877 171.594 133.402C172.438 134.613 173.84 135.406 175.428 135.406Z" fill="white"/>
<path d="M175.428 126.067C172.849 126.067 170.759 128.158 170.759 130.737C170.759 131.728 171.068 132.646 171.594 133.402C173.456 130.877 175.961 128.855 178.868 127.579C178.014 126.65 176.789 126.067 175.428 126.067Z" fill="white"/>
<path d="M95.1551 131.474C96.45 129.748 98.0237 128.736 99.7207 128.736C100.527 128.736 101.305 128.964 102.039 129.389C101.864 127.526 100.296 126.067 98.3866 126.067C96.3605 126.067 94.718 127.71 94.718 129.736C94.718 130.365 94.8763 130.957 95.1551 131.474Z" fill="white"/>
<path d="M98.3866 133.405C100.413 133.405 102.055 131.762 102.055 129.736C102.055 129.619 102.05 129.503 102.039 129.389C101.305 128.964 100.527 128.736 99.7207 128.736C98.0237 128.736 96.45 129.748 95.1551 131.474C95.7746 132.624 96.9894 133.405 98.3866 133.405Z" fill="white"/>
<path d="M204.11 144.077C204.11 134.131 196.047 126.067 186.101 126.067C183.528 126.067 181.081 126.607 178.868 127.579C179.631 128.41 180.097 129.519 180.097 130.737C180.097 133.315 178.007 135.406 175.428 135.406C173.84 135.406 172.438 134.613 171.594 133.402C169.392 136.39 168.091 140.081 168.091 144.077C168.091 147.759 169.196 151.183 171.092 154.036C179.097 146.745 191.77 144.411 202.068 152.415C203.373 149.922 204.11 147.086 204.11 144.077Z" fill="#261089"/>
<path d="M102.055 129.736C102.055 131.762 100.413 133.405 98.3866 133.405C96.9894 133.405 95.7746 132.624 95.1551 131.474C93.0768 134.245 91.7164 138.857 91.7164 144.077C91.7164 146.337 91.9713 148.482 92.4289 150.414C97.4629 147.732 100.721 147.65 107.161 149.747C107.525 147.993 107.725 146.08 107.725 144.077C107.725 137.149 105.329 131.294 102.039 129.389C102.05 129.503 102.055 129.619 102.055 129.736Z" fill="#261089"/>
<path d="M171.092 154.036C174.319 158.889 179.836 162.087 186.101 162.087C193.038 162.087 199.06 158.164 202.068 152.415C191.77 144.411 179.097 146.745 171.092 154.036Z" fill="#3315B7"/>
<path d="M92.4289 150.414C93.6873 155.725 96.479 159.419 99.7207 159.419C103.096 159.419 105.984 155.413 107.161 149.747C100.721 147.65 97.4629 147.732 92.4289 150.414Z" fill="#3315B7"/>
<path fill-rule="evenodd" clip-rule="evenodd" d="M110.727 137.74C110.727 134.572 110.391 131.538 109.778 128.736C89.7153 101.388 77.3753 153.749 96.7191 163.365C104.541 162.484 110.727 151.348 110.727 137.74ZM94.718 129.736C94.718 127.71 96.3605 126.067 98.3866 126.067C100.296 126.067 101.864 127.526 102.039 129.389C105.329 131.294 107.725 137.149 107.725 144.077C107.725 146.08 107.525 147.993 107.161 149.747C105.984 155.413 103.096 159.419 99.7207 159.419C96.479 159.419 93.6873 155.725 92.4289 150.414C91.9713 148.482 91.7164 146.337 91.7164 144.077C91.7164 138.857 93.0768 134.245 95.1551 131.474C94.8763 130.957 94.718 130.365 94.718 129.736Z" fill="#E5B800"/>
<path d="M83.8297 153.416C86.5741 159.501 90.8788 163.421 95.7185 163.421C96.0547 163.421 96.3884 163.402 96.7191 163.365C77.3753 153.749 89.7153 101.388 109.778 128.736C109.411 127.06 108.945 125.467 108.392 123.979C91.7164 104.389 80.0434 129.736 83.8297 153.416Z" fill="white"/>
<path d="M95.7185 112.06C87.4298 112.06 80.7104 123.558 80.7104 137.74C80.7104 143.642 81.8739 149.079 83.8297 153.416C80.0434 129.736 91.7164 104.389 108.392 123.979C105.729 116.814 101.048 112.06 95.7185 112.06Z" fill="#120840"/>
<path d="M210.664 129.172C213.59 134.42 214.699 140.451 213.825 146.365C222.453 99.72 152.082 101.721 157.498 140.337C157.956 134.378 160.377 128.724 164.398 124.22C168.419 119.716 173.824 116.603 179.807 115.347C185.789 114.091 192.027 114.758 197.589 117.25C203.151 119.742 207.738 123.924 210.664 129.172Z" fill="#120840"/>
<path d="M130.807 206.34C133.195 205.463 134.797 204.107 137.656 202.881C140.515 201.645 141.067 201.731 144.251 200.119C147.43 198.505 150.714 197.096 152.075 196.263C153.432 195.432 153.762 195.701 155.726 194.595C157.695 193.484 158.935 192.893 160.729 192.09C162.531 191.292 167.938 188.495 169.776 187.275C171.625 186.066 173.94 185.041 175.253 184.324C175.687 184.087 176.011 183.922 176.257 183.804C176.361 183.754 176.418 183.748 176.431 183.769C176.431 183.769 176.431 183.769 176.431 183.769C176.447 183.796 176.394 183.864 176.27 183.945C175.654 184.345 174.707 184.971 173.609 185.737C171.548 187.166 171.23 187.086 168.348 188.806C165.471 190.51 163.795 191.655 160.251 193.366C156.702 195.065 156.161 196.008 151.054 198.213C145.936 200.395 145.676 201.2 140.705 203.646C135.721 206.097 129.154 208.582 126.027 209.774C123.57 210.628 120.675 212.163 116.652 212.257L116.633 212.255C115.583 212.124 114.526 211.943 113.472 211.702C108.759 210.715 103.038 208.199 99.3234 204.269C95.4228 200.512 92.0721 193.708 90.9746 190.484C89.8244 187.262 89.5981 186.455 88.5856 183.333C88.0129 181.523 87.4173 178.994 87.1096 176.815C86.9543 175.711 87.1123 175.94 87.3988 177.016C87.8183 178.577 88.089 179.88 88.4315 180.661C89.1155 182.194 89.3978 182.851 89.8661 184.899C90.3527 186.954 91.0373 187.752 91.4316 188.905C91.891 190.016 91.4253 190.237 94.4617 195.617C97.68 200.902 100.292 203.101 102.05 204.555C103.781 206.045 107.861 208.724 111.554 209.626C112.901 209.997 114.795 210.414 116.825 210.648L116.806 210.646C119.848 210.592 123.654 208.935 125.425 208.244C128.321 207.002 128.393 207.212 130.807 206.34ZM178.229 183.688C178.267 183.914 178.787 183.603 178.89 183.823C178.993 184.043 178.796 184.288 179.031 184.423C179.266 184.559 179.3 184.895 179.473 184.886C179.646 184.878 179.38 185.161 179.558 185.217C179.736 185.273 179.771 185.38 179.784 185.571C179.797 185.762 180.036 186.153 180.259 186.158C180.483 186.162 180.423 186.483 180.457 186.606C180.467 186.644 180.467 186.683 180.462 186.718C180.46 186.732 180.445 186.753 180.427 186.77C180.427 186.77 180.427 186.77 180.427 186.77C180.406 186.792 180.38 186.809 180.369 186.804C180.317 186.778 180.223 186.755 180.075 186.766C179.8 186.785 179.949 186.608 179.7 186.511C179.451 186.413 179.196 186.46 179.09 186.159C178.985 185.858 178.529 186.22 178.473 185.701C178.418 185.182 177.959 185.579 177.616 185.35C177.273 185.12 177.147 184.523 176.955 184.37C176.763 184.217 176.481 184.035 176.293 183.733C176.105 183.432 175.66 183.273 175.491 182.902C175.321 182.531 175.067 182.021 174.975 181.76C174.884 181.498 174.861 181.436 174.639 181.318C174.511 181.25 174.405 181.088 174.401 180.864C174.4 180.751 174.49 180.687 174.584 180.707C174.722 180.738 174.755 180.843 174.895 180.79C175.175 180.683 175.286 180.646 175.283 180.868C175.28 181.089 175.586 180.886 175.621 180.979C175.655 181.072 175.504 181.222 175.944 181.43C176.384 181.638 176.591 181.786 176.742 181.881C176.892 181.976 177.018 182.363 177.265 182.516C177.513 182.669 177.876 183.119 178.117 183.206C178.358 183.292 178.19 183.461 178.229 183.688Z" fill="#120840"/>
<path d="M133.909 175.529C134.733 176.967 131.133 176.721 128.736 178.096C126.339 179.47 124.394 182.636 123.57 181.198C122.745 179.76 124.02 177.48 126.417 176.106C128.814 174.732 133.084 174.09 133.909 175.529Z" fill="#120840"/>
<path d="M97.0524 178.096C98.5835 180.171 99.8604 181.923 98.72 182.765C97.5795 183.606 95.4139 182.606 93.8828 180.531C92.3517 178.456 92.035 176.092 93.1755 175.251C94.3159 174.409 95.5213 176.021 97.0524 178.096Z" fill="#120840"/>
<path d="M133.909 175.529C134.733 176.967 131.133 176.721 128.736 178.096C126.339 179.47 124.394 182.636 123.57 181.198C122.745 179.76 124.02 177.48 126.417 176.106C128.814 174.732 133.084 174.09 133.909 175.529Z" stroke="black" stroke-width="0.667026"/>
<path d="M97.0524 178.096C98.5835 180.171 99.8604 181.923 98.72 182.765C97.5795 183.606 95.4139 182.606 93.8828 180.531C92.3517 178.456 92.035 176.092 93.1755 175.251C94.3159 174.409 95.5213 176.021 97.0524 178.096Z" stroke="black" stroke-width="0.667026"/>
<path d="M119.398 177.429C121.066 169.759 128.736 165.423 135.74 170.426C126.674 169.018 123.023 170.461 119.398 177.429Z" fill="#CABFF7"/>
<path d="M102.389 180.431C102.389 173.094 97.7196 165.423 90.7158 170.426C99.7819 169.018 98.7637 173.463 102.389 180.431Z" fill="#CABFF7"/>
<path d="M27.6817 27.0146C24.7562 41.0801 20.2777 46.3168 7.00391 50.6941C26.0142 57.6978 27.6817 72.7059 27.6817 74.3735C27.6817 72.7059 29.3493 57.6978 48.3595 50.6941C35.0858 46.3168 30.6072 41.0801 27.6817 27.0146Z" fill="#FFDC51"/>
<path d="M257.397 43.3564C255.048 54.6484 251.453 58.8526 240.796 62.3667C256.058 67.9894 257.397 80.0382 257.397 81.3769C257.397 80.0382 258.736 67.9894 273.997 62.3667C263.341 58.8526 259.746 54.6484 257.397 43.3564Z" fill="#FFE580"/>
<path d="M245.466 212.781C243.862 220.495 241.406 223.366 234.126 225.767C244.551 229.608 245.466 237.838 245.466 238.752C245.466 237.838 246.38 229.608 256.805 225.767C249.526 223.366 247.07 220.495 245.466 212.781Z" fill="#FFDC51"/>
<path d="M72.3725 238.795C71.0985 244.92 69.1482 247.201 63.3677 249.107C71.6463 252.157 72.3725 258.693 72.3725 259.419C72.3725 258.693 73.0987 252.157 81.3774 249.107C75.5969 247.201 73.6465 244.92 72.3725 238.795Z" fill="#FFDC51"/>
<path d="M47.7912 196.105C45.937 205.02 43.0985 208.339 34.6855 211.114C46.7343 215.553 47.7912 225.065 47.7912 226.122C47.7912 225.065 48.8481 215.553 60.8969 211.114C52.4839 208.339 49.6454 205.02 47.7912 196.105Z" fill="#FFDC51"/>
<path d="M30.1384 146.746C27.0068 161.802 22.2129 167.408 8.00439 172.093C28.3534 179.59 30.1384 195.655 30.1384 197.44C30.1384 195.655 31.9234 179.59 52.2724 172.093C38.0638 167.408 33.2699 161.802 30.1384 146.746Z" fill="#FFDC51"/>
<path d="M13.1057 104.056C11.2514 112.97 8.41294 116.289 0 119.064C12.0487 123.503 13.1057 133.015 13.1057 134.072C13.1057 133.015 14.1626 123.503 26.2113 119.064C17.7984 116.289 14.9599 112.97 13.1057 104.056Z" fill="#FFDC51"/>
<g filter="url(#filter0_f_1279_12979)">
<ellipse cx="195.744" cy="198.616" rx="67.7031" ry="12.34" transform="rotate(-25.7528 195.744 198.616)" fill="#261089" fill-opacity="0.3"/>
</g>
<g filter="url(#filter1_f_1279_12979)">
<ellipse cx="115.435" cy="166.555" rx="20.0108" ry="12.34" transform="rotate(-25.7528 115.435 166.555)" fill="white" fill-opacity="0.2"/>
</g>
<path d="M6 416.419V346.419H47.25V356.819H16.4V373.719H42.45V384.119H16.4V416.419H6ZM70.1406 417.719C65.5406 417.719 61.3406 416.536 57.5406 414.169C53.774 411.802 50.7573 408.636 48.4906 404.669C46.2573 400.669 45.1406 396.252 45.1406 391.419C45.1406 387.752 45.7906 384.336 47.0906 381.169C48.3906 377.969 50.174 375.169 52.4406 372.769C54.7406 370.336 57.4073 368.436 60.4406 367.069C63.474 365.702 66.7073 365.019 70.1406 365.019C74.7406 365.019 78.924 366.202 82.6906 368.569C86.4906 370.936 89.5073 374.119 91.7406 378.119C94.0073 382.119 95.1406 386.552 95.1406 391.419C95.1406 395.052 94.4906 398.452 93.1906 401.619C91.8906 404.786 90.0906 407.586 87.7906 410.019C85.524 412.419 82.874 414.302 79.8406 415.669C76.8406 417.036 73.6073 417.719 70.1406 417.719ZM70.1406 407.319C72.9073 407.319 75.3906 406.586 77.5906 405.119C79.7906 403.652 81.524 401.719 82.7906 399.319C84.0906 396.886 84.7406 394.252 84.7406 391.419C84.7406 388.519 84.074 385.852 82.7406 383.419C81.4406 380.986 79.6906 379.052 77.4906 377.619C75.2906 376.152 72.8406 375.419 70.1406 375.419C67.4073 375.419 64.924 376.152 62.6906 377.619C60.4906 379.086 58.7406 381.036 57.4406 383.469C56.174 385.902 55.5406 388.552 55.5406 391.419C55.5406 394.386 56.2073 397.069 57.5406 399.469C58.874 401.869 60.6406 403.786 62.8406 405.219C65.074 406.619 67.5073 407.319 70.1406 407.319ZM146.219 385.069V416.419H135.819V387.619C135.819 385.386 135.269 383.352 134.169 381.519C133.102 379.686 131.652 378.236 129.819 377.169C128.019 376.069 125.985 375.519 123.719 375.519C121.519 375.519 119.502 376.069 117.669 377.169C115.835 378.236 114.369 379.686 113.269 381.519C112.169 383.352 111.619 385.386 111.619 387.619V416.419H101.219V366.419H111.619V371.719C113.352 369.652 115.485 368.019 118.019 366.819C120.552 365.619 123.285 365.019 126.219 365.019C129.919 365.019 133.285 365.919 136.319 367.719C139.352 369.519 141.752 371.936 143.519 374.969C145.319 378.002 146.219 381.369 146.219 385.069ZM180.599 376.819H170.099L170.049 416.419H159.649L159.699 376.819H151.749V366.419H159.699L159.649 350.719H170.049L170.099 366.419H180.599V376.819ZM234.524 417.719C230.691 417.719 227.008 417.119 223.474 415.919C219.941 414.719 216.858 413.002 214.224 410.769C211.591 408.502 209.708 405.819 208.574 402.719L218.324 399.069C218.891 400.669 219.974 402.102 221.574 403.369C223.208 404.602 225.141 405.569 227.374 406.269C229.641 406.969 232.024 407.319 234.524 407.319C237.191 407.319 239.691 406.886 242.024 406.019C244.391 405.152 246.291 403.952 247.724 402.419C249.191 400.886 249.924 399.086 249.924 397.019C249.924 394.886 249.158 393.136 247.624 391.769C246.124 390.402 244.191 389.319 241.824 388.519C239.491 387.719 237.058 387.119 234.524 386.719C229.624 385.919 225.224 384.752 221.324 383.219C217.458 381.686 214.391 379.536 212.124 376.769C209.891 374.002 208.774 370.402 208.774 365.969C208.774 361.802 209.958 358.169 212.324 355.069C214.724 351.969 217.874 349.569 221.774 347.869C225.708 346.136 229.958 345.269 234.524 345.269C238.291 345.269 241.924 345.869 245.424 347.069C248.958 348.236 252.058 349.952 254.724 352.219C257.424 354.452 259.358 357.169 260.524 360.369L250.674 363.919C250.108 362.286 249.024 360.869 247.424 359.669C245.824 358.436 243.891 357.469 241.624 356.769C239.391 356.069 237.024 355.719 234.524 355.719C231.858 355.686 229.358 356.119 227.024 357.019C224.724 357.886 222.841 359.086 221.374 360.619C219.908 362.152 219.174 363.936 219.174 365.969C219.174 368.469 219.858 370.369 221.224 371.669C222.591 372.969 224.424 373.936 226.724 374.569C229.058 375.169 231.658 375.719 234.524 376.219C239.124 376.952 243.374 378.169 247.274 379.869C251.208 381.569 254.358 383.836 256.724 386.669C259.124 389.469 260.324 392.919 260.324 397.019C260.324 401.152 259.124 404.786 256.724 407.919C254.358 411.019 251.208 413.436 247.274 415.169C243.374 416.869 239.124 417.719 234.524 417.719ZM295.009 376.819H284.509L284.459 416.419H274.059L274.109 376.819H266.159V366.419H274.109L274.059 350.719H284.459L284.509 366.419H295.009V376.819ZM334.648 366.419H345.748L318.348 441.419H307.298L316.348 416.419L298.398 366.419H309.748L321.548 402.169L334.648 366.419ZM351.23 416.419V341.419H361.63V416.419H351.23ZM392.91 417.719C388.31 417.719 384.11 416.536 380.31 414.169C376.543 411.802 373.527 408.636 371.26 404.669C369.027 400.669 367.91 396.252 367.91 391.419C367.91 387.752 368.56 384.336 369.86 381.169C371.16 377.969 372.943 375.169 375.21 372.769C377.51 370.336 380.177 368.436 383.21 367.069C386.243 365.702 389.477 365.019 392.91 365.019C396.743 365.019 400.26 365.819 403.46 367.419C406.66 368.986 409.393 371.169 411.66 373.969C413.927 376.736 415.593 379.936 416.66 383.569C417.727 387.169 418.043 391.002 417.61 395.069H379.06C379.493 397.369 380.327 399.452 381.56 401.319C382.827 403.152 384.427 404.602 386.36 405.669C388.327 406.736 390.51 407.286 392.91 407.319C395.443 407.319 397.743 406.686 399.81 405.419C401.91 404.152 403.627 402.402 404.96 400.169L415.51 402.619C413.51 407.052 410.493 410.686 406.46 413.519C402.427 416.319 397.91 417.719 392.91 417.719ZM378.71 387.119H407.11C406.777 384.719 405.927 382.552 404.56 380.619C403.227 378.652 401.543 377.102 399.51 375.969C397.51 374.802 395.31 374.219 392.91 374.219C390.543 374.219 388.343 374.786 386.31 375.919C384.31 377.052 382.643 378.602 381.31 380.569C380.01 382.502 379.143 384.686 378.71 387.119Z" fill="#6145DE"/>
<defs>
<filter id="filter0_f_1279_12979" x="101.175" y="133.811" width="189.138" height="129.611" filterUnits="userSpaceOnUse" color-interpolation-filters="sRGB">
<feFlood flood-opacity="0" result="BackgroundImageFix"/>
<feBlend mode="normal" in="SourceGraphic" in2="BackgroundImageFix" result="shape"/>
<feGaussianBlur stdDeviation="16.6757" result="effect1_foregroundBlur_1279_12979"/>
</filter>
<filter id="filter1_f_1279_12979" x="63.2747" y="119.092" width="104.32" height="94.9253" filterUnits="userSpaceOnUse" color-interpolation-filters="sRGB">
<feFlood flood-opacity="0" result="BackgroundImageFix"/>
<feBlend mode="normal" in="SourceGraphic" in2="BackgroundImageFix" result="shape"/>
<feGaussianBlur stdDeviation="16.6757" result="effect1_foregroundBlur_1279_12979"/>
</filter>
</defs>
</svg>
