<svg width="745" height="732" viewBox="0 0 745 732" fill="none" xmlns="http://www.w3.org/2000/svg">
<g clip-path="url(#clip0_1279_12956)">
<path d="M0 100C0 44.7715 44.7715 0 100 0H645C700.229 0 745 44.7715 745 100V632C745 687.229 700.228 732 645 732H100C44.7715 732 0 687.228 0 632V100Z" fill="#EAF2FB"/>
<path d="M14 56.6728C200.17 150.945 279.064 159.171 374.79 92.0964C489.308 9.94427 570.469 9.36739 728 42.703" stroke="#6145DE" stroke-width="2" stroke-dasharray="6 6"/>
<path d="M745 647.673C550.747 741.945 468.427 750.171 368.546 683.096C249.055 600.944 164.371 600.367 -2.74777e-05 633.703" stroke="#6145DE" stroke-width="2" stroke-dasharray="6 6"/>
<g clip-path="url(#clip1_1279_12956)">
<rect x="47" y="254.244" width="166" height="44" rx="22" transform="rotate(-30.0976 47 254.244)" fill="#FFCCE6"/>
<path d="M108.73 251.983L106.737 253.138L100.139 241.754L104.484 239.236C107.069 237.738 109.338 238.17 110.637 240.413C111.522 241.939 111.438 243.444 110.414 244.766L115.287 248.183L113.107 249.446L108.711 246.314L106.266 247.731L108.73 251.983ZM103.161 242.374L105.246 245.972L107.598 244.609C108.859 243.878 109.219 242.775 108.551 241.622C107.892 240.485 106.774 240.28 105.513 241.011L103.161 242.374ZM119.901 245.779C117.612 247.106 115.042 246.369 113.661 243.986C112.262 241.572 112.869 238.994 115.127 237.686C117.432 236.35 119.789 237.043 121.179 239.441L121.513 240.017L115.729 243.391C116.655 244.664 117.768 244.934 119.03 244.203C120.073 243.599 120.524 242.796 120.317 241.938L122.077 240.918C122.725 242.79 121.91 244.614 119.901 245.779ZM116.045 239.234C114.924 239.884 114.591 240.888 115.072 242.149L118.934 239.91C118.32 238.852 117.182 238.575 116.045 239.234ZM122.246 238.781C120.946 236.539 121.435 234.009 123.631 232.736C124.783 232.068 125.966 232.027 126.896 232.591L126.392 231.468L128.151 230.448L132.385 237.752C133.874 240.322 133.262 242.819 130.77 244.264C128.559 245.546 126.317 245.16 124.892 243.239L126.792 242.138C127.494 243.063 128.6 243.212 129.768 242.535C131.077 241.777 131.439 240.464 130.699 239.187L129.959 237.91C129.891 238.906 129.203 239.909 128.097 240.549C125.917 241.813 123.537 241.008 122.246 238.781ZM124.134 237.624C124.883 238.917 126.268 239.404 127.514 238.682C128.822 237.924 129.1 236.536 128.323 235.196C127.565 233.888 126.247 233.445 124.924 234.213C123.662 234.944 123.403 236.363 124.134 237.624ZM135.334 226.285L137.234 225.184L141.694 232.877L139.934 233.897L139.198 232.95C139.155 233.953 138.447 235.029 137.419 235.625C135.644 236.654 133.905 236.059 132.813 234.175L130.024 229.363L131.924 228.262L134.325 232.404C135.174 233.868 136.093 234.126 137.152 233.512C138.351 232.817 138.521 231.782 137.672 230.318L135.334 226.285ZM145.571 230.629L143.687 231.721L136.971 220.135L138.856 219.043L145.571 230.629ZM149.971 228.349C148.336 229.297 146.788 228.925 145.949 227.477C145.128 226.06 145.641 224.576 147.382 223.38L149.587 221.873L149.488 221.701C148.883 220.658 148.017 220.599 147.051 221.158C145.93 221.808 145.578 222.636 146.047 223.446L144.427 224.385C143.462 222.719 144.2 220.834 146.287 219.625C148.358 218.424 150.285 218.805 151.522 220.939L154.23 225.611L152.563 226.576L151.764 225.521C151.898 226.505 151.17 227.654 149.971 228.349ZM149.763 226.556C150.931 225.879 151.273 224.745 150.587 223.561L150.352 223.156L148.82 224.211C147.7 225.006 147.474 225.657 147.835 226.28C148.241 226.98 148.907 227.052 149.763 226.556ZM156.447 214.006L157.467 215.766L156.766 216.172C155.395 216.967 154.963 218.195 155.83 219.69L157.996 223.427L156.096 224.529L151.646 216.851L153.437 215.813L154.196 216.871C154.081 215.919 154.515 214.98 155.542 214.385C155.807 214.231 156.09 214.109 156.447 214.006Z" fill="#141219"/>
</g>
<g clip-path="url(#clip2_1279_12956)">
<rect x="47.3916" y="613" width="166" height="44" rx="22" transform="rotate(30.5907 47.3916 613)" fill="#D3F6F8"/>
<path d="M75.4369 652.249C76.6094 650.266 79.0671 649.858 81.4533 651.268C83.7466 652.624 84.4519 654.756 83.3048 656.838L81.3214 655.665C81.852 654.661 81.4937 653.676 80.3781 653.016C79.154 652.293 78.0157 652.414 77.4569 653.36C76.9806 654.165 77.1488 654.871 77.9657 655.647L79.5186 657.088C81.2081 658.651 81.5671 660.201 80.5686 661.89C79.3228 663.998 76.8743 664.39 74.3796 662.915C71.9624 661.486 71.1422 659.266 72.2957 657.209L74.2791 658.381C73.7266 659.351 74.1624 660.382 75.433 661.134C76.7501 661.912 77.9257 661.834 78.4845 660.888C78.9333 660.129 78.8116 659.451 78.001 658.7L76.4418 657.234C74.7677 655.68 74.411 653.984 75.4369 652.249ZM83.4564 668.282C81.1787 666.935 80.5628 664.334 81.9644 661.963C83.3842 659.561 85.9293 658.828 88.1761 660.157C90.4693 661.512 91.019 663.907 89.6083 666.294L89.2694 666.867L83.4961 663.475C82.8386 664.905 83.1483 666.008 84.4034 666.75C85.4416 667.364 86.3615 667.364 87.009 666.764L88.7599 667.799C87.4452 669.28 85.4552 669.463 83.4564 668.282ZM87.2755 661.715C86.1599 661.056 85.1209 661.257 84.2571 662.294L88.0998 664.565C88.7227 663.512 88.4067 662.384 87.2755 661.715ZM90.6666 672.272L88.7762 671.155L93.3013 663.5L95.0368 664.526L94.6604 665.516C95.4234 665.11 96.4912 665.072 97.5914 665.723C98.7535 666.41 99.2203 667.459 99.101 668.581C100.011 667.927 101.248 667.885 102.41 668.572C104.27 669.671 104.633 671.391 103.588 673.157L100.63 678.162L98.7549 677.054L101.42 672.545C102.071 671.445 101.821 670.523 100.922 669.992C100.008 669.452 98.9627 669.628 98.2208 670.883L95.6559 675.222L93.7655 674.104L96.4403 669.58C97.0724 668.511 96.838 667.598 95.9393 667.067C95.0406 666.536 93.9642 666.694 93.2314 667.934L90.6666 672.272ZM108.863 670.63C108.212 670.245 108.003 669.431 108.378 668.796C108.754 668.161 109.558 667.967 110.209 668.352C110.829 668.718 111.047 669.516 110.672 670.152C110.296 670.787 109.482 670.996 108.863 670.63ZM102.485 679.259L107.011 671.605L108.901 672.722L104.376 680.377L102.485 679.259ZM106.608 681.696L113.304 670.37L117.813 673.035C120.044 674.354 120.721 676.323 119.603 678.213C118.861 679.468 117.772 680.037 116.437 679.854C117.401 680.947 117.474 682.203 116.696 683.52C115.551 685.457 113.534 685.791 111.194 684.408L106.608 681.696ZM116.607 674.685L114.252 673.293L112.429 676.377L114.831 677.796C115.916 678.438 116.859 678.222 117.454 677.214C118.031 676.238 117.723 675.345 116.607 674.685ZM113.966 679.543L111.44 678.05L109.626 681.118L112.152 682.611C113.268 683.271 114.208 683.095 114.813 682.072C115.38 681.111 115.066 680.193 113.966 679.543ZM118.244 683.39C119.655 681.004 122.346 680.378 124.716 681.779C127.087 683.181 127.836 685.84 126.425 688.226C125.015 690.613 122.324 691.238 119.953 689.837C117.582 688.435 116.833 685.776 118.244 683.39ZM120.135 684.507C119.31 685.902 119.65 687.378 120.952 688.148C122.253 688.917 123.711 688.503 124.535 687.109C125.359 685.714 125.02 684.238 123.718 683.468C122.416 682.699 120.959 683.113 120.135 684.507ZM127.558 694.082L125.683 692.973L132.498 681.445L134.373 682.554L127.558 694.082ZM132.567 697.315C130.352 696.005 129.934 693.563 131.336 691.192C132.747 688.806 135.149 687.926 137.457 689.291C138.527 689.923 139.206 690.931 139.238 691.974L142.105 687.124L143.98 688.233L137.164 699.761L135.429 698.735L136.01 697.468C135.023 698.077 133.729 698.002 132.567 697.315ZM134.012 695.827C135.329 696.605 136.74 696.164 137.555 694.785C138.37 693.406 138.086 691.942 136.769 691.163C135.452 690.384 134.069 690.884 133.263 692.248C132.457 693.611 132.695 695.048 134.012 695.827Z" fill="#141219"/>
</g>
<g clip-path="url(#clip3_1279_12956)">
<rect x="592.775" y="171" width="166" height="44" rx="22" transform="rotate(32.7076 592.775 171)" fill="#FFF4CC"/>
<path d="M621.688 224.032L619.81 222.826L626.92 211.754L628.798 212.96L626.712 224.07L635.947 217.551L637.855 218.776L630.745 229.848L628.867 228.642L631.056 225.234C632.485 223.008 632.904 222.356 633.515 221.637L626.156 226.901L624.369 225.753L626.099 216.896C625.777 217.63 625.121 218.685 624.236 220.063L621.688 224.032ZM636.144 233.593C633.918 232.163 633.398 229.541 634.886 227.223C636.394 224.876 638.964 224.238 641.161 225.648C643.402 227.087 643.863 229.501 642.365 231.834L642.005 232.394L636.361 228.791C635.651 230.196 635.92 231.31 637.147 232.098C638.162 232.75 639.081 232.784 639.75 232.208L641.462 233.307C640.093 234.739 638.098 234.848 636.144 233.593ZM640.203 227.172C639.113 226.472 638.067 226.635 637.165 227.639L640.921 230.051C641.583 229.021 641.309 227.882 640.203 227.172ZM644.302 238.832C642.136 237.441 641.81 234.985 643.298 232.668C644.796 230.335 647.229 229.545 649.485 230.994C650.53 231.665 651.172 232.698 651.165 233.741L654.21 229.001L656.042 230.177L648.806 241.446L647.109 240.357L647.737 239.113C646.728 239.684 645.438 239.561 644.302 238.832ZM645.8 237.398C647.088 238.225 648.514 237.836 649.38 236.488C650.245 235.14 650.015 233.666 648.728 232.839C647.441 232.013 646.04 232.461 645.184 233.794C644.328 235.127 644.513 236.572 645.8 237.398ZM657.423 234.294C656.787 233.886 656.608 233.065 657.007 232.444C657.406 231.823 658.217 231.659 658.853 232.068C659.459 232.457 659.647 233.263 659.248 233.884C658.85 234.505 658.029 234.683 657.423 234.294ZM650.731 242.683L655.536 235.201L657.384 236.387L652.579 243.869L650.731 242.683ZM663.908 240.577L665.756 241.764L660.951 249.246L659.24 248.147L659.746 247.059C658.834 247.48 657.554 247.342 656.554 246.7C654.827 245.591 654.561 243.773 655.738 241.94L658.744 237.26L660.592 238.447L658.004 242.476C657.09 243.899 657.281 244.835 658.311 245.496C659.477 246.245 660.475 245.924 661.389 244.5L663.908 240.577ZM664.708 251.658L662.86 250.471L667.665 242.989L669.361 244.079L668.948 245.054C669.726 244.676 670.794 244.678 671.87 245.369C673.006 246.098 673.433 247.164 673.273 248.281C674.206 247.66 675.444 247.664 676.58 248.394C678.398 249.561 678.697 251.293 677.588 253.02L674.447 257.912L672.614 256.735L675.444 252.328C676.135 251.252 675.919 250.322 675.041 249.758C674.147 249.184 673.096 249.322 672.308 250.549L669.585 254.79L667.737 253.603L670.577 249.181C671.248 248.136 671.048 247.215 670.169 246.651C669.291 246.087 668.209 246.205 667.431 247.417L664.708 251.658Z" fill="#141219"/>
</g>
<path d="M92.6504 30.35C93.4171 30.35 93.9837 30.3833 94.3504 30.45C94.7504 30.4833 95.1837 30.6333 95.6504 30.9C96.1504 31.1667 96.5004 31.6167 96.7004 32.25C96.9004 32.8833 97.0004 33.7333 97.0004 34.8C97.0004 35.8667 96.9004 36.7167 96.7004 37.35C96.5004 37.9833 96.1504 38.4333 95.6504 38.7C95.1504 38.9333 94.7004 39.0833 94.3004 39.15C93.9337 39.1833 93.3504 39.2 92.5504 39.2H77.2504V44.25H87.1004C87.9004 44.25 88.4837 44.2833 88.8504 44.35C89.2504 44.3833 89.7004 44.5333 90.2004 44.8C91.0671 45.3 91.5004 46.6167 91.5004 48.75C91.5004 51.0833 90.8671 52.4667 89.6004 52.9C89.0671 53.0667 88.2171 53.15 87.0504 53.15H77.2504V62.6C77.2504 63.4 77.2171 63.9833 77.1504 64.35C77.1171 64.7167 76.9671 65.15 76.7004 65.65C76.2337 66.55 74.9337 67 72.8004 67C70.4671 67 69.1004 66.3667 68.7004 65.1C68.5004 64.5667 68.4004 63.7167 68.4004 62.55V34.75C68.4004 33.05 68.7171 31.9 69.3504 31.3C69.9837 30.6667 71.1837 30.35 72.9504 30.35H92.6504ZM115.158 40.95C115.791 41.15 116.308 41.5 116.708 42C117.141 42.4667 117.358 43.2333 117.358 44.3C117.358 45.3667 117.041 46.5333 116.408 47.8C115.774 49.0667 114.858 49.7 113.658 49.7C113.058 49.7 112.474 49.5667 111.908 49.3C111.374 49.0333 110.658 48.9 109.758 48.9C108.858 48.9 108.008 49.2167 107.208 49.85C106.441 50.4833 106.058 51.25 106.058 52.15V62.65C106.058 63.4167 106.024 64 105.958 64.4C105.924 64.7667 105.774 65.2 105.508 65.7C105.008 66.5667 103.708 67 101.608 67C100.008 67 98.8578 66.7167 98.1578 66.15C97.6245 65.6833 97.3245 64.9667 97.2578 64C97.2578 63.6667 97.2578 63.1833 97.2578 62.55V45C97.2578 44.2333 97.2745 43.6667 97.3078 43.3C97.3745 42.9 97.5245 42.4667 97.7578 42C98.2245 41.1 99.5245 40.65 101.658 40.65C103.658 40.65 104.908 41.0333 105.408 41.8C105.774 42.3333 105.958 42.8833 105.958 43.45C106.124 43.2167 106.358 42.9333 106.658 42.6C106.991 42.2667 107.674 41.8167 108.708 41.25C109.741 40.6833 110.641 40.4 111.408 40.4C112.208 40.4 112.874 40.45 113.408 40.55C113.941 40.6167 114.524 40.75 115.158 40.95ZM143.996 50.7C143.996 52.7333 143.479 54.25 142.446 55.25C141.446 56.2167 140.329 56.7 139.096 56.7H127.246C127.246 57.6333 127.796 58.4167 128.896 59.05C129.996 59.6833 131.096 60 132.196 60C134.129 60 135.646 59.8 136.746 59.4L137.296 59.2C138.096 58.8333 138.762 58.65 139.296 58.65C140.362 58.65 141.279 59.4 142.046 60.9C142.479 61.8 142.696 62.5667 142.696 63.2C142.696 66.1667 139.146 67.65 132.046 67.65C129.579 67.65 127.379 67.2333 125.446 66.4C123.546 65.5333 122.062 64.4 120.996 63C118.896 60.3 117.846 57.2833 117.846 53.95C117.846 49.75 119.196 46.4 121.896 43.9C124.629 41.3667 128.029 40.1 132.096 40.1C136.729 40.1 140.129 41.7333 142.296 45C143.429 46.7333 143.996 48.6333 143.996 50.7ZM133.446 52.15C134.712 52.15 135.346 51.6167 135.346 50.55C135.346 49.7833 135.046 49.1667 134.446 48.7C133.879 48.2333 133.046 48 131.946 48C130.879 48 129.812 48.45 128.746 49.35C127.679 50.2167 127.146 51.15 127.146 52.15H133.446ZM164.908 29.7C165.174 29.2 165.624 28.85 166.258 28.65C166.891 28.45 167.724 28.35 168.758 28.35C169.824 28.35 170.674 28.45 171.308 28.65C171.941 28.85 172.374 29.2 172.608 29.7C172.874 30.2 173.024 30.65 173.058 31.05C173.124 31.4167 173.158 31.9833 173.158 32.75V62.6C173.158 63.3667 173.124 63.95 173.058 64.35C173.024 64.7167 172.874 65.1333 172.608 65.6C172.108 66.5 170.691 66.95 168.358 66.95C166.058 66.95 164.774 66.1333 164.508 64.5C163.108 66.1 161.158 66.9 158.658 66.9C155.658 66.9 152.924 65.6 150.458 63C147.991 60.3667 146.758 57.3167 146.758 53.85C146.758 50.35 147.991 47.2833 150.458 44.65C152.958 42.0167 155.691 40.7 158.658 40.7C161.124 40.7 163.041 41.5333 164.408 43.2V32.7C164.408 31.9333 164.424 31.3667 164.458 31C164.524 30.6 164.674 30.1667 164.908 29.7ZM156.808 56.85C157.674 57.75 158.724 58.2 159.958 58.2C161.191 58.2 162.208 57.75 163.008 56.85C163.841 55.95 164.258 54.9667 164.258 53.9C164.258 52.8 163.858 51.7833 163.058 50.85C162.291 49.9167 161.241 49.45 159.908 49.45C158.574 49.45 157.508 49.9167 156.708 50.85C155.908 51.75 155.508 52.75 155.508 53.85C155.508 54.95 155.941 55.95 156.808 56.85ZM176.391 53.85C176.391 49.85 177.791 46.55 180.591 43.95C183.391 41.35 186.591 40.05 190.191 40.05C193.791 40.05 196.974 41.35 199.741 43.95C202.507 46.5167 203.891 49.8 203.891 53.8C203.891 56.5667 203.174 59.0333 201.741 61.2C200.307 63.3333 198.557 64.9167 196.491 65.95C194.457 66.95 192.341 67.45 190.141 67.45C187.941 67.45 185.807 66.9167 183.741 65.85C181.674 64.75 179.924 63.15 178.491 61.05C177.091 58.9167 176.391 56.5167 176.391 53.85ZM186.841 57.45C187.907 58.25 188.991 58.65 190.091 58.65C191.191 58.65 192.291 58.2333 193.391 57.4C194.491 56.5667 195.041 55.3333 195.041 53.7C195.041 52.0667 194.524 50.85 193.491 50.05C192.457 49.25 191.341 48.85 190.141 48.85C188.941 48.85 187.824 49.2667 186.791 50.1C185.757 50.9333 185.241 52.1667 185.241 53.8C185.241 55.4 185.774 56.6167 186.841 57.45ZM222.621 53.8L229.271 59.3C230.104 60 230.621 60.5333 230.821 60.9C231.054 61.2667 231.171 61.6167 231.171 61.95C231.171 62.75 230.654 63.8333 229.621 65.2C228.488 66.6 227.488 67.3 226.621 67.3C225.888 67.3 224.871 66.8167 223.571 65.85L223.071 65.5C222.304 64.8667 221.121 63.7667 219.521 62.2C217.921 60.6 216.704 59.4667 215.871 58.8V62.65C215.871 63.4167 215.838 64 215.771 64.4C215.738 64.7667 215.588 65.2 215.321 65.7C214.888 66.5667 213.604 67 211.471 67C209.371 67 208.088 66.55 207.621 65.65C207.388 65.15 207.238 64.7167 207.171 64.35C207.138 63.95 207.121 63.3667 207.121 62.6V32.65C207.121 31.8833 207.138 31.3167 207.171 30.95C207.238 30.55 207.388 30.1 207.621 29.6C208.088 28.7 209.388 28.25 211.521 28.25C213.121 28.25 214.254 28.5333 214.921 29.1C215.488 29.5667 215.788 30.3 215.821 31.3C215.854 31.6 215.871 32.0667 215.871 32.7V48.55C216.471 48.05 217.371 47.2 218.571 46C219.804 44.8 220.721 43.95 221.321 43.45L221.921 43.05C223.088 42.15 224.088 41.7 224.921 41.7C225.754 41.7 226.704 42.3833 227.771 43.75C228.871 45.0833 229.421 46.1333 229.421 46.9C229.421 47.6667 228.804 48.5667 227.571 49.6L222.621 53.8ZM249.514 43.45C249.714 41.5833 251.031 40.65 253.464 40.65C254.764 40.65 255.731 40.75 256.364 40.95C256.997 41.15 257.431 41.5 257.664 42C257.931 42.5 258.081 42.95 258.114 43.35C258.181 43.7167 258.214 44.2833 258.214 45.05V62.55C258.214 63.3167 258.181 63.9 258.114 64.3C258.081 64.6667 257.947 65.1 257.714 65.6C257.247 66.4667 256.097 66.9 254.264 66.9C252.464 66.9 251.247 66.6833 250.614 66.25C250.014 65.7833 249.664 65.1167 249.564 64.25C248.331 66.0167 246.264 66.9 243.364 66.9C240.497 66.9 237.831 65.5833 235.364 62.95C232.897 60.3167 231.664 57.2667 231.664 53.8C231.664 50.3 232.897 47.25 235.364 44.65C237.864 42.0167 240.597 40.7 243.564 40.7C244.697 40.7 245.731 40.9 246.664 41.3C247.597 41.7 248.247 42.0833 248.614 42.45C248.981 42.7833 249.281 43.1167 249.514 43.45ZM240.414 53.85C240.414 54.95 240.847 55.95 241.714 56.85C242.581 57.7167 243.631 58.15 244.864 58.15C246.097 58.15 247.114 57.7 247.914 56.8C248.747 55.9 249.164 54.9167 249.164 53.85C249.164 52.75 248.764 51.7333 247.964 50.8C247.197 49.8667 246.147 49.4 244.814 49.4C243.514 49.4 242.447 49.8667 241.614 50.8C240.814 51.7333 240.414 52.75 240.414 53.85ZM292.046 29.9C296.979 29.9 301.262 31.6833 304.896 35.25C308.529 38.8167 310.346 43.25 310.346 48.55C310.346 53.8167 308.612 58.3167 305.146 62.05C301.679 65.75 297.412 67.6 292.346 67.6C287.279 67.6 282.962 65.7667 279.396 62.1C275.862 58.4333 274.096 54.0667 274.096 49C274.096 46.2333 274.596 43.65 275.596 41.25C276.596 38.8167 277.929 36.7833 279.596 35.15C281.262 33.5167 283.179 32.2333 285.346 31.3C287.512 30.3667 289.746 29.9 292.046 29.9ZM282.946 48.75C282.946 51.7167 283.896 54.1333 285.796 56C287.729 57.8333 289.879 58.75 292.246 58.75C294.612 58.75 296.746 57.85 298.646 56.05C300.546 54.25 301.496 51.8333 301.496 48.8C301.496 45.7667 300.529 43.3333 298.596 41.5C296.696 39.6667 294.562 38.75 292.196 38.75C289.829 38.75 287.696 39.6833 285.796 41.55C283.896 43.3833 282.946 45.7833 282.946 48.75ZM328.265 40.65C331.599 40.65 334.365 41.9333 336.565 44.5C338.799 47.0333 339.915 50.1333 339.915 53.8V62.6C339.915 63.3667 339.882 63.95 339.815 64.35C339.782 64.7167 339.649 65.1333 339.415 65.6C338.949 66.5 337.649 66.95 335.515 66.95C333.149 66.95 331.782 66.3333 331.415 65.1C331.215 64.5333 331.115 63.6833 331.115 62.55V53.75C331.115 52.3833 330.715 51.3167 329.915 50.55C329.149 49.7833 328.099 49.4 326.765 49.4C325.465 49.4 324.399 49.8 323.565 50.6C322.765 51.4 322.365 52.45 322.365 53.75V62.6C322.365 63.3667 322.332 63.95 322.265 64.35C322.232 64.7167 322.082 65.1333 321.815 65.6C321.382 66.5 320.099 66.95 317.965 66.95C315.865 66.95 314.582 66.5 314.115 65.6C313.882 65.1 313.732 64.6667 313.665 64.3C313.632 63.9 313.615 63.3167 313.615 62.55V44.85C313.615 44.1167 313.632 43.5667 313.665 43.2C313.732 42.8 313.899 42.3667 314.165 41.9C314.632 41.0667 315.915 40.65 318.015 40.65C320.049 40.65 321.299 41.0333 321.765 41.8C322.099 42.3667 322.265 43.05 322.265 43.85C322.399 43.6167 322.699 43.2833 323.165 42.85C323.632 42.4167 324.082 42.0667 324.515 41.8C325.649 41.0333 326.899 40.65 328.265 40.65ZM369.338 50.7C369.338 52.7333 368.821 54.25 367.788 55.25C366.788 56.2167 365.671 56.7 364.438 56.7H352.588C352.588 57.6333 353.138 58.4167 354.238 59.05C355.338 59.6833 356.438 60 357.538 60C359.471 60 360.988 59.8 362.088 59.4L362.638 59.2C363.438 58.8333 364.104 58.65 364.638 58.65C365.704 58.65 366.621 59.4 367.388 60.9C367.821 61.8 368.038 62.5667 368.038 63.2C368.038 66.1667 364.488 67.65 357.388 67.65C354.921 67.65 352.721 67.2333 350.788 66.4C348.888 65.5333 347.404 64.4 346.338 63C344.238 60.3 343.188 57.2833 343.188 53.95C343.188 49.75 344.538 46.4 347.238 43.9C349.971 41.3667 353.371 40.1 357.438 40.1C362.071 40.1 365.471 41.7333 367.637 45C368.771 46.7333 369.338 48.6333 369.338 50.7ZM358.788 52.15C360.054 52.15 360.688 51.6167 360.688 50.55C360.688 49.7833 360.388 49.1667 359.788 48.7C359.221 48.2333 358.388 48 357.288 48C356.221 48 355.154 48.45 354.088 49.35C353.021 50.2167 352.488 51.15 352.488 52.15H358.788Z" fill="#3316B6"/>
<path d="M546.742 92.9C547.075 92.3 547.558 91.9 548.192 91.7C548.825 91.5 549.608 91.4 550.542 91.4C551.508 91.4 552.275 91.4833 552.842 91.65C553.442 91.8167 553.875 92.0167 554.142 92.25C554.442 92.4833 554.658 92.8333 554.792 93.3C554.992 93.8333 555.092 94.6833 555.092 95.85V123.6C555.092 124.4 555.058 124.983 554.992 125.35C554.958 125.717 554.808 126.15 554.542 126.65C554.075 127.55 552.775 128 550.642 128C549.342 128 548.442 127.9 547.942 127.7C547.442 127.5 547.025 127.183 546.692 126.75C539.192 116.75 534.258 110.217 531.892 107.15V123.6C531.892 124.4 531.858 124.983 531.792 125.35C531.758 125.717 531.608 126.15 531.342 126.65C530.875 127.55 529.575 128 527.442 128C525.375 128 524.108 127.55 523.642 126.65C523.375 126.15 523.208 125.7 523.142 125.3C523.108 124.9 523.092 124.317 523.092 123.55V95.65C523.092 94.3833 523.242 93.4667 523.542 92.9C523.875 92.3 524.358 91.9 524.992 91.7C525.625 91.5 526.442 91.4 527.442 91.4C528.442 91.4 529.225 91.5 529.792 91.7C530.392 91.8667 530.808 92.0667 531.042 92.3C531.175 92.4 531.558 92.8333 532.192 93.6C539.225 103.167 543.925 109.483 546.292 112.55V95.65C546.292 94.3833 546.442 93.4667 546.742 92.9ZM570.778 127.9C567.411 127.9 564.611 126.633 562.378 124.1C560.178 121.533 559.078 118.417 559.078 114.75V106C559.078 105.2 559.095 104.617 559.128 104.25C559.195 103.883 559.345 103.45 559.578 102.95C560.045 102.05 561.345 101.6 563.478 101.6C565.811 101.6 567.178 102.233 567.578 103.5C567.778 104.033 567.878 104.883 567.878 106.05V114.8C567.878 116.167 568.261 117.233 569.028 118C569.828 118.767 570.878 119.15 572.178 119.15C573.511 119.15 574.578 118.75 575.378 117.95C576.211 117.15 576.628 116.1 576.628 114.8V105.95C576.628 105.183 576.645 104.617 576.678 104.25C576.745 103.85 576.911 103.4 577.178 102.9C577.611 102.033 578.895 101.6 581.028 101.6C583.128 101.6 584.411 102.05 584.878 102.95C585.111 103.45 585.245 103.9 585.278 104.3C585.345 104.667 585.378 105.233 585.378 106V123.7C585.378 124.433 585.345 125 585.278 125.4C585.245 125.767 585.095 126.183 584.828 126.65C584.328 127.517 583.045 127.95 580.978 127.95C578.945 127.95 577.695 127.55 577.228 126.75C576.895 126.183 576.728 125.5 576.728 124.7C576.595 124.933 576.295 125.267 575.828 125.7C575.361 126.133 574.911 126.5 574.478 126.8C573.345 127.533 572.111 127.9 570.778 127.9ZM604.05 101.65C607.384 101.65 610.15 102.933 612.35 105.5C614.584 108.033 615.7 111.133 615.7 114.8V123.6C615.7 124.367 615.667 124.95 615.6 125.35C615.567 125.717 615.434 126.133 615.2 126.6C614.734 127.5 613.434 127.95 611.3 127.95C608.934 127.95 607.567 127.333 607.2 126.1C607 125.533 606.9 124.683 606.9 123.55V114.75C606.9 113.383 606.5 112.317 605.7 111.55C604.934 110.783 603.884 110.4 602.55 110.4C601.25 110.4 600.184 110.8 599.35 111.6C598.55 112.4 598.15 113.45 598.15 114.75V123.6C598.15 124.367 598.117 124.95 598.05 125.35C598.017 125.717 597.867 126.133 597.6 126.6C597.167 127.5 595.884 127.95 593.75 127.95C591.65 127.95 590.367 127.5 589.9 126.6C589.667 126.1 589.517 125.667 589.45 125.3C589.417 124.9 589.4 124.317 589.4 123.55V105.85C589.4 105.117 589.417 104.567 589.45 104.2C589.517 103.8 589.684 103.367 589.95 102.9C590.417 102.067 591.7 101.65 593.8 101.65C595.834 101.65 597.084 102.033 597.55 102.8C597.884 103.367 598.05 104.05 598.05 104.85C598.184 104.617 598.484 104.283 598.95 103.85C599.417 103.417 599.867 103.067 600.3 102.8C601.434 102.033 602.684 101.65 604.05 101.65ZM619.723 106.05C619.723 105.283 619.739 104.717 619.773 104.35C619.839 103.95 619.989 103.5 620.223 103C620.689 102.133 621.989 101.7 624.123 101.7C625.723 101.7 626.856 101.983 627.523 102.55C628.089 103.017 628.389 103.733 628.423 104.7C628.456 105.033 628.473 105.517 628.473 106.15V123.65C628.473 124.417 628.439 125 628.373 125.4C628.339 125.767 628.189 126.2 627.923 126.7C627.489 127.567 626.206 128 624.073 128C621.973 128 620.689 127.55 620.223 126.65C619.989 126.15 619.839 125.717 619.773 125.35C619.739 124.983 619.723 124.4 619.723 123.6V106.05ZM627.923 96.8C627.689 97.2667 627.256 97.6 626.623 97.8C625.989 98 625.139 98.1 624.073 98.1C623.039 98.1 622.206 98 621.573 97.8C620.939 97.6 620.489 97.25 620.223 96.75C619.989 96.25 619.839 95.8167 619.773 95.45C619.739 95.05 619.723 94.4667 619.723 93.7C619.723 92.9333 619.739 92.3667 619.773 92C619.839 91.6 619.989 91.1667 620.223 90.7C620.689 89.8 621.989 89.35 624.123 89.35C626.223 89.35 627.489 89.8 627.923 90.7C628.189 91.2 628.339 91.65 628.373 92.05C628.439 92.4167 628.473 92.9833 628.473 93.75C628.473 94.5167 628.439 95.1 628.373 95.5C628.339 95.8667 628.189 96.3 627.923 96.8ZM647.767 110.5L644.517 110.3V117.2C644.517 118.1 644.65 118.75 644.917 119.15C645.217 119.55 645.75 119.75 646.517 119.75C647.317 119.75 647.917 119.783 648.317 119.85C648.75 119.883 649.2 120.033 649.667 120.3C650.433 120.733 650.817 121.85 650.817 123.65C650.817 125.75 650.35 127.033 649.417 127.5C648.917 127.733 648.467 127.883 648.067 127.95C647.7 127.983 647.15 128 646.417 128C642.95 128 640.317 127.217 638.517 125.65C636.717 124.083 635.817 121.433 635.817 117.7V110.3C635.183 110.4 634.5 110.45 633.767 110.45C633.033 110.45 632.417 110.167 631.917 109.6C631.45 109.033 631.217 108.067 631.217 106.7C631.217 105.333 631.3 104.35 631.467 103.75C631.633 103.117 631.867 102.667 632.167 102.4C632.7 101.967 633.367 101.75 634.167 101.75L635.817 101.95V96.8C635.817 96.0333 635.833 95.4667 635.867 95.1C635.933 94.7333 636.1 94.3333 636.367 93.9C636.8 93.0667 638.083 92.65 640.217 92.65C642.483 92.65 643.833 93.2667 644.267 94.5C644.433 95.0333 644.517 95.8833 644.517 97.05V101.95C645.983 101.817 647.083 101.75 647.817 101.75C648.583 101.75 649.15 101.783 649.517 101.85C649.917 101.883 650.367 102.033 650.867 102.3C651.733 102.733 652.167 104.017 652.167 106.15C652.167 108.25 651.717 109.533 650.817 110C650.317 110.233 649.867 110.383 649.467 110.45C649.1 110.483 648.533 110.5 647.767 110.5ZM654.178 114.85C654.178 110.85 655.578 107.55 658.378 104.95C661.178 102.35 664.378 101.05 667.978 101.05C671.578 101.05 674.761 102.35 677.528 104.95C680.294 107.517 681.678 110.8 681.678 114.8C681.678 117.567 680.961 120.033 679.528 122.2C678.094 124.333 676.344 125.917 674.278 126.95C672.244 127.95 670.128 128.45 667.928 128.45C665.728 128.45 663.594 127.917 661.528 126.85C659.461 125.75 657.711 124.15 656.278 122.05C654.878 119.917 654.178 117.517 654.178 114.85ZM664.628 118.45C665.694 119.25 666.778 119.65 667.878 119.65C668.978 119.65 670.078 119.233 671.178 118.4C672.278 117.567 672.828 116.333 672.828 114.7C672.828 113.067 672.311 111.85 671.278 111.05C670.244 110.25 669.128 109.85 667.928 109.85C666.728 109.85 665.611 110.267 664.578 111.1C663.544 111.933 663.028 113.167 663.028 114.8C663.028 116.4 663.561 117.617 664.628 118.45Z" fill="#3316B6"/>
<path d="M459.599 124.05C456.699 124.05 453.832 123.3 450.999 121.8C447.832 123.533 444.632 124.4 441.399 124.4C432.832 124.4 428.549 120.833 428.549 113.7C428.549 110 430.465 106.567 434.299 103.4C432.965 100.433 432.299 97.75 432.299 95.35C432.299 92.0167 433.299 89.55 435.299 87.95C437.299 86.35 439.982 85.55 443.349 85.55C446.715 85.55 449.265 86.35 450.999 87.95C452.732 89.55 453.599 91.7333 453.599 94.5C453.599 96.8333 452.649 98.9333 450.749 100.8C449.349 102.2 447.382 103.75 444.849 105.45C446.815 108.05 448.949 110.25 451.249 112.05C452.182 110.617 452.832 109.15 453.199 107.65C453.532 106.183 455.032 105.45 457.699 105.45C458.832 105.45 459.682 105.6 460.249 105.9C460.849 106.2 461.182 106.517 461.249 106.85C461.349 107.15 461.382 107.55 461.349 108.05C461.215 110.583 460.182 113.1 458.249 115.6C458.749 115.7 459.215 115.75 459.649 115.75C462.249 115.75 463.549 117.067 463.549 119.7C463.549 121.533 463.249 122.717 462.649 123.25C462.049 123.783 461.032 124.05 459.599 124.05ZM440.199 94.75C440.199 95.95 440.482 97.3 441.049 98.8C442.615 97.8 443.782 96.9667 444.549 96.3C445.349 95.6333 445.749 95 445.749 94.4C445.749 92.9333 444.932 92.2 443.299 92.2C441.232 92.2 440.199 93.05 440.199 94.75ZM441.749 117C442.582 117 443.332 116.933 443.999 116.8C442.065 115.067 440.232 113 438.499 110.6C437.732 111.567 437.349 112.567 437.349 113.6C437.349 115.867 438.815 117 441.749 117Z" fill="#3316B6"/>
<path d="M711.025 689.886C712.242 670.695 708.649 667.984 693.049 680.48C673.639 673.051 670.108 676.662 675.887 695.855C664.292 711.727 667.011 715.773 687.091 714.976C696.427 731.204 701.116 730.128 708.597 711.753C727.489 705.793 727.801 700.969 711.025 689.886Z" fill="#B3A4F4" fill-opacity="0.5" stroke="#401BE4" stroke-opacity="0.5"/>
<path d="M23.8052 100.836C24.6826 86.9927 22.0908 85.0376 10.839 94.0508C-3.16189 88.6922 -5.70912 91.2972 -1.54059 105.141C-9.9043 116.59 -7.94272 119.508 6.5413 118.933C13.2754 130.638 16.6571 129.863 22.0533 116.608C35.6803 112.31 35.9058 108.83 23.8052 100.836Z" fill="#FFF4CC" fill-opacity="0.5" stroke="#FFC800" stroke-opacity="0.5"/>
<path d="M30.0343 559.796C31.0364 543.986 28.0762 541.753 15.2258 552.047C-0.76447 545.927 -3.67362 548.902 1.0872 564.713C-8.46488 577.788 -6.22458 581.122 10.3174 580.465C18.0083 593.833 21.8706 592.947 28.0334 577.81C43.5967 572.901 43.8542 568.926 30.0343 559.796Z" fill="#E9FBFB" fill-opacity="0.5" stroke="#24D2DB" stroke-opacity="0.5"/>
<path d="M734.025 128.886C735.242 109.695 731.649 106.984 716.049 119.48C696.639 112.051 693.108 115.662 698.887 134.855C687.292 150.727 690.011 154.773 710.091 153.976C719.427 170.204 724.116 169.128 731.597 150.753C750.489 144.793 750.801 139.969 734.025 128.886Z" fill="#FFCCE6" fill-opacity="0.5" stroke="#FF0080" stroke-opacity="0.5"/>
<path d="M264.838 254.5L399.838 533.5C405.505 544.833 408.338 553.333 408.338 559C408.338 571 398.671 581.833 379.338 591.5C368.005 597.167 359.005 600 352.338 600C346.005 600 340.671 598.5 336.338 595.5C332.338 592.5 329.338 589.333 327.338 586C325.671 582.667 323.171 577.667 319.838 571L293.838 517H155.338L129.338 571C126.005 577.667 123.338 582.5 121.338 585.5C119.671 588.5 116.671 591.667 112.338 595C108.338 598 103.005 599.5 96.3379 599.5C90.0046 599.5 81.1712 596.667 69.8379 591C50.5046 581.667 40.8379 571 40.8379 559C40.8379 553.333 43.6712 544.833 49.3379 533.5L184.338 254C188.005 246.333 193.505 240.167 200.838 235.5C208.505 230.833 216.505 228.5 224.838 228.5C242.838 228.5 256.171 237.167 264.838 254.5ZM224.338 374.5L191.338 443H257.838L224.338 374.5Z" fill="#6145DE"/>
<path d="M601.074 360C603.074 341.333 616.241 332 640.574 332C653.574 332 663.241 333 669.574 335C675.908 337 680.241 340.5 682.574 345.5C685.241 350.5 686.741 355 687.074 359C687.741 362.667 688.074 368.333 688.074 376V551C688.074 558.667 687.741 564.5 687.074 568.5C686.741 572.167 685.408 576.5 683.074 581.5C678.408 590.167 666.908 594.5 648.574 594.5C630.574 594.5 618.408 592.333 612.074 588C606.074 583.333 602.574 576.667 601.574 568C589.241 585.667 568.574 594.5 539.574 594.5C510.908 594.5 484.241 581.333 459.574 555C434.908 528.667 422.574 498.167 422.574 463.5C422.574 428.5 434.908 398 459.574 372C484.574 345.667 511.908 332.5 541.574 332.5C552.908 332.5 563.241 334.5 572.574 338.5C581.908 342.5 588.408 346.333 592.074 350C595.741 353.333 598.741 356.667 601.074 360ZM510.074 464C510.074 475 514.408 485 523.074 494C531.741 502.667 542.241 507 554.574 507C566.908 507 577.074 502.5 585.074 493.5C593.408 484.5 597.574 474.667 597.574 464C597.574 453 593.574 442.833 585.574 433.5C577.908 424.167 567.408 419.5 554.074 419.5C541.074 419.5 530.408 424.167 522.074 433.5C514.074 442.833 510.074 453 510.074 464Z" fill="#6145DE"/>
<path d="M487.618 309.33C488.515 295.181 485.866 293.182 474.365 302.395C460.055 296.918 457.451 299.58 461.712 313.73C453.163 325.432 455.168 328.416 469.973 327.828C476.856 339.792 480.312 338.999 485.828 325.451C499.756 321.058 499.987 317.501 487.618 309.33Z" fill="#AACCEE" fill-opacity="0.5" stroke="#2A7FD5" stroke-opacity="0.5"/>
<rect x="490" y="645.858" width="166" height="44" rx="22" transform="rotate(-14.2489 490 645.858)" fill="#D9D1FA"/>
<path d="M560.529 657.868L557.29 645.115L562.367 643.825C564.88 643.187 566.747 644.106 567.288 646.235C567.647 647.648 567.275 648.819 566.2 649.631C567.654 649.726 568.592 650.565 568.968 652.048C569.522 654.228 568.328 655.888 565.693 656.557L560.529 657.868ZM562.676 645.846L560.024 646.519L560.906 649.991L563.61 649.304C564.831 648.994 565.348 648.176 565.06 647.042C564.781 645.943 563.932 645.527 562.676 645.846ZM564.228 651.153L561.384 651.875L562.262 655.329L565.105 654.607C566.361 654.288 566.904 653.5 566.612 652.349C566.337 651.267 565.467 650.838 564.228 651.153ZM569.974 650.864C569.292 648.177 570.759 645.836 573.428 645.158C576.097 644.48 578.504 645.838 579.186 648.524C579.868 651.211 578.401 653.552 575.732 654.23C573.063 654.908 570.657 653.55 569.974 650.864ZM572.103 650.323C572.501 651.893 573.784 652.701 575.249 652.328C576.715 651.956 577.456 650.635 577.057 649.065C576.659 647.495 575.377 646.687 573.911 647.06C572.446 647.432 571.704 648.753 572.103 650.323ZM584.118 651.878L582.007 652.414L578.71 639.434L580.821 638.898L584.118 651.878ZM589.95 650.638C587.455 651.272 585.437 649.834 584.759 647.165C584.077 644.478 585.16 642.16 587.759 641.5C588.963 641.194 590.156 641.43 590.913 642.148L589.527 636.687L591.638 636.151L594.934 649.131L592.98 649.627L592.499 648.319C592.228 649.447 591.258 650.306 589.95 650.638ZM589.924 648.565C591.407 648.188 592.097 646.88 591.702 645.327C591.308 643.775 590.074 642.937 588.591 643.313C587.108 643.69 586.48 645.019 586.87 646.555C587.26 648.09 588.441 648.941 589.924 648.565Z" fill="#141219"/>
</g>
<defs>
<clipPath id="clip0_1279_12956">
<path d="M0 100C0 44.7715 44.7715 0 100 0H645C700.229 0 745 44.7715 745 100V632C745 687.229 700.228 732 645 732H100C44.7715 732 0 687.228 0 632V100Z" fill="white"/>
</clipPath>
<clipPath id="clip1_1279_12956">
<rect x="47" y="254.244" width="166" height="44" rx="22" transform="rotate(-30.0976 47 254.244)" fill="white"/>
</clipPath>
<clipPath id="clip2_1279_12956">
<rect x="47.3916" y="613" width="166" height="44" rx="22" transform="rotate(30.5907 47.3916 613)" fill="white"/>
</clipPath>
<clipPath id="clip3_1279_12956">
<rect x="592.775" y="171" width="166" height="44" rx="22" transform="rotate(32.7076 592.775 171)" fill="white"/>
</clipPath>
</defs>
</svg>
