<svg width="428" height="338" viewBox="0 0 428 338" fill="none" xmlns="http://www.w3.org/2000/svg">
<rect width="428" height="338" rx="24" fill="#D4E5F7"/>
<g filter="url(#filter0_i_988_13609)">
<path d="M176.868 290.741C212.904 295.932 230.941 295.849 267.16 292.325C263.587 298.548 260.268 302.588 255.256 306.581C254.385 307.275 253.462 307.968 252.478 308.671C237.139 318.708 205.746 318.284 190.596 308.978C183.122 304.388 177.111 298.335 176.868 290.741Z" fill="url(#paint0_radial_988_13609)"/>
<path d="M267.16 280.18C271.128 284.107 271.956 286.596 267.16 292.325C230.941 295.849 212.904 295.932 176.868 290.741C173.9 286.604 173.466 283.844 176.868 278.596C212.519 284.58 232.655 285.038 267.16 280.18Z" fill="url(#paint1_radial_988_13609)"/>
<path d="M267.16 265.395C272.543 271.298 272.376 274.499 267.16 280.18C232.655 285.038 212.519 284.58 176.868 278.596C172.404 273.609 172.308 270.881 175.811 265.924C212.368 272.684 232.607 272.688 267.16 265.395Z" fill="url(#paint2_radial_988_13609)"/>
<path d="M179.508 252.195C213.223 258.265 231.413 257.72 260.295 249.027C265.083 247.474 268.191 244.652 270.316 241.106C271.497 253.178 271.933 259.704 267.16 265.395C232.607 272.688 212.368 272.684 175.811 265.924C172.234 261.85 172.445 256.741 172.547 247.971C174.344 249.826 176.607 251.283 179.508 252.195Z" fill="url(#paint3_radial_988_13609)"/>
<path d="M246.039 312.918C241.911 315.617 239.595 317.933 235.478 322.422C231.782 325.59 212.245 326.118 209.605 322.422C206.848 319.177 205.381 316.614 201.685 314.502C197.964 312.98 194.118 311.141 190.596 308.978C205.746 318.284 237.139 318.708 252.478 308.671C250.584 310.023 248.462 311.412 246.039 312.918Z" fill="url(#paint4_radial_988_13609)"/>
<path d="M104 109.1C104 96.4803 106.841 83.9838 112.361 72.3243C117.88 60.6649 125.97 50.0709 136.168 41.1472C146.367 32.2234 158.475 25.1447 171.8 20.3152C185.125 15.4858 199.406 13 213.829 13C228.252 13 242.534 15.4858 255.859 20.3152C269.184 25.1447 281.291 32.2234 291.49 41.1472C301.689 50.0709 309.778 60.6649 315.297 72.3243C320.817 83.9838 323.658 96.4803 323.658 109.1C322.736 154.493 310.458 171.935 282.472 203.617C274.101 212.386 276.865 230.184 270.316 241.106C268.191 244.652 265.083 247.474 260.295 249.027C231.413 257.72 213.223 258.265 179.508 252.195C176.607 251.283 174.344 249.826 172.547 247.971C162.892 238.006 166.679 216.578 157.331 206.785C119.931 176.689 104.923 154.493 104 109.1Z" fill="#7FE1E6"/>
</g>
<path d="M172.547 247.971C174.344 249.826 176.607 251.283 179.508 252.195C213.223 258.265 231.413 257.72 260.295 249.027C265.083 247.474 268.191 244.652 270.316 241.106C276.865 230.184 274.101 212.386 282.472 203.617C310.458 171.935 322.736 154.493 323.658 109.1C323.658 96.4803 320.817 83.9838 315.297 72.3243C309.778 60.6649 301.689 50.0709 291.49 41.1472C281.291 32.2234 269.184 25.1447 255.859 20.3152C242.534 15.4858 228.252 13 213.829 13C199.406 13 185.125 15.4858 171.8 20.3152C158.475 25.1447 146.367 32.2234 136.168 41.1472C125.97 50.0709 117.88 60.6649 112.361 72.3243C106.841 83.9838 104 96.4803 104 109.1C104.923 154.493 119.931 176.689 157.331 206.785C166.679 216.578 162.892 238.006 172.547 247.971ZM270.316 241.106C271.497 253.178 271.933 259.704 267.16 265.395M267.16 265.395C272.543 271.298 272.376 274.499 267.16 280.18M267.16 265.395C232.607 272.688 212.368 272.684 175.811 265.924M267.16 280.18C271.128 284.107 271.956 286.596 267.16 292.325M267.16 280.18C232.655 285.038 212.519 284.58 176.868 278.596M267.16 292.325C230.941 295.849 212.904 295.932 176.868 290.741M267.16 292.325C263.587 298.548 260.268 302.588 255.256 306.581M172.547 247.971C172.445 256.741 172.234 261.85 175.811 265.924M175.811 265.924C172.308 270.881 172.404 273.609 176.868 278.596M176.868 278.596C173.466 283.844 173.9 286.604 176.868 290.741M252.478 308.671C250.584 310.023 248.462 311.412 246.039 312.918C241.911 315.617 239.595 317.933 235.478 322.422C231.782 325.59 212.245 326.118 209.605 322.422C206.848 319.177 205.381 316.614 201.685 314.502C197.964 312.98 194.118 311.141 190.596 308.978C183.122 304.388 177.111 298.335 176.868 290.741M255.256 306.581C254.385 307.275 253.462 307.968 252.478 308.671M255.256 306.581C254.404 307.322 253.475 308.018 252.478 308.671M190.596 308.978C205.746 318.284 237.139 318.708 252.478 308.671" stroke="black" stroke-width="2.22857"/>
<path d="M256.342 162.268C256.165 162.268 255.99 162.224 255.836 162.136C252.34 160.132 249.509 156.546 247.965 152.911C246.386 149.195 246.137 145.072 247.257 141.202C247.796 139.341 248.636 137.59 249.735 136.011C250.922 134.305 252.409 132.798 254.144 131.567C257.485 129.195 261.549 127.981 265.685 128.12C268.237 128.205 270.725 128.803 272.999 129.856C282.069 142.541 281.807 149.283 274.695 161.375C274.214 161.66 273.719 161.926 273.21 162.169C273.072 162.235 272.92 162.268 272.767 162.268H256.342Z" fill="black"/>
<path d="M276.954 132.332C280.119 134.922 282.298 138.469 283.141 142.405C283.984 146.341 283.443 150.437 281.604 154.039C281.039 155.147 280.36 156.189 279.582 157.15C278.228 158.826 276.574 160.258 274.695 161.375C281.807 149.283 282.069 142.541 272.999 129.856C274.412 130.51 275.742 131.34 276.954 132.332Z" fill="#FAF0F4"/>
<path d="M265.685 128.12C261.549 127.981 257.485 129.195 254.144 131.567C252.409 132.798 250.922 134.305 249.735 136.011C256.419 125.232 268.605 120.758 280.944 128.997C281.57 129.415 282.368 129.505 283.056 129.199L286.64 127.606C286.67 127.593 286.705 127.61 286.713 127.642C287.236 129.695 286.768 130.934 284.333 132.8C283.889 133.14 283.758 133.763 284.056 134.236C284.817 135.444 285.352 136.166 286.58 137.006C286.657 137.059 286.742 137.101 286.832 137.128C288.098 137.506 289.113 137.182 290.236 136.792C290.574 136.675 290.927 136.925 290.897 137.282C290.739 139.189 289.803 140.127 287.343 141.073C286.953 141.223 286.676 141.583 286.639 141.999C285.723 152.452 283.777 154.902 279.582 157.15C280.36 156.189 281.039 155.147 281.604 154.039C283.443 150.437 283.984 146.341 283.141 142.405C282.298 138.469 280.119 134.922 276.954 132.332C275.742 131.34 274.412 130.51 272.999 129.856C270.725 128.803 268.237 128.205 265.685 128.12Z" fill="black"/>
<g filter="url(#filter1_f_988_13609)">
<circle cx="255.543" cy="152.927" r="2.64012" transform="rotate(180 255.543 152.927)" fill="#FFFEFE"/>
<ellipse cx="5.19715" cy="8.65169" rx="5.19715" ry="8.65169" transform="matrix(0.00821069 -0.999966 -0.999966 -0.00821069 272.888 161.173)" fill="#FEFAA1"/>
<ellipse cx="4.10619" cy="5.67481" rx="4.10619" ry="5.67481" transform="matrix(-0.714274 0.699866 0.699866 0.714274 269.248 128.602)" fill="#FFFEFE"/>
<ellipse cx="257.615" cy="137.148" rx="4.10619" ry="5.67481" transform="rotate(44.4163 257.615 137.148)" fill="#C4859A"/>
<circle cx="266.104" cy="142.366" r="1.58407" transform="rotate(180 266.104 142.366)" fill="#FFFEFE"/>
<circle cx="262.936" cy="139.198" r="1.58407" transform="rotate(180 262.936 139.198)" fill="#FFFEFE"/>
</g>
<path d="M190.325 165.635C190.503 165.635 190.678 165.591 190.832 165.503C194.327 163.499 197.159 159.913 198.703 156.278C200.282 152.562 200.531 148.439 199.41 144.569C198.872 142.708 198.031 140.957 196.932 139.378C195.746 137.672 194.258 136.166 192.523 134.934C189.182 132.562 185.118 131.348 180.982 131.487C178.43 131.572 175.943 132.17 173.668 133.223C164.599 145.908 164.86 152.65 171.973 164.742C172.453 165.028 172.949 165.293 173.458 165.536C173.596 165.602 173.748 165.635 173.901 165.635H190.325Z" fill="black"/>
<path d="M169.713 135.699C166.548 138.289 164.369 141.836 163.526 145.772C162.683 149.708 163.224 153.805 165.063 157.406C165.629 158.514 166.308 159.556 167.085 160.518C168.44 162.193 170.094 163.625 171.973 164.742C164.86 152.65 164.599 145.908 173.668 133.223C172.256 133.877 170.926 134.707 169.713 135.699Z" fill="#FAF0F4"/>
<path d="M180.982 131.487C185.118 131.348 189.182 132.562 192.523 134.934C194.258 136.166 195.746 137.672 196.932 139.378C190.249 128.599 178.062 124.125 165.723 132.364C165.097 132.782 164.3 132.872 163.612 132.567L160.027 130.974C159.998 130.96 159.963 130.978 159.955 131.009C159.432 133.062 159.899 134.302 162.334 136.167C162.778 136.507 162.909 137.13 162.611 137.603C161.85 138.811 161.316 139.533 160.088 140.373C160.01 140.426 159.925 140.469 159.835 140.495C158.57 140.873 157.555 140.549 156.432 140.16C156.093 140.042 155.741 140.292 155.771 140.649C155.929 142.557 156.865 143.495 159.325 144.44C159.714 144.59 159.992 144.95 160.028 145.366C160.944 155.819 162.891 158.269 167.085 160.518C166.308 159.556 165.629 158.514 165.063 157.406C163.224 153.805 162.683 149.708 163.526 145.772C164.369 141.836 166.548 138.289 169.713 135.699C170.926 134.707 172.256 133.877 173.668 133.223C175.943 132.17 178.43 131.572 180.982 131.487Z" fill="black"/>
<g filter="url(#filter2_f_988_13609)">
<circle cx="2.64012" cy="2.64012" r="2.64012" transform="matrix(1 0 0 -1 188.484 158.934)" fill="#FFFEFE"/>
<ellipse cx="182.388" cy="159.272" rx="5.19715" ry="8.65169" transform="rotate(-90.4704 182.388 159.272)" fill="#FEFAA1"/>
<ellipse cx="176.38" cy="138.896" rx="4.10619" ry="5.67481" transform="rotate(44.4163 176.38 138.896)" fill="#FFFEFE"/>
<ellipse cx="4.10619" cy="5.67481" rx="4.10619" ry="5.67481" transform="matrix(-0.714274 0.699866 0.699866 0.714274 188.015 133.588)" fill="#C4859A"/>
<circle cx="1.58407" cy="1.58407" r="1.58407" transform="matrix(1 0 0 -1 178.979 147.317)" fill="#FFFEFE"/>
<circle cx="1.58407" cy="1.58407" r="1.58407" transform="matrix(1 0 0 -1 182.147 144.148)" fill="#FFFEFE"/>
</g>
<path fill-rule="evenodd" clip-rule="evenodd" d="M236.454 162.283C237.06 162.093 237.717 162.473 237.815 163.101C240.93 183.029 207.216 178.637 213.474 162.725C213.66 162.253 214.184 161.996 214.679 162.111C218.847 163.078 221.408 162.829 225.57 161.505C225.829 161.423 226.11 161.442 226.357 161.556C230.061 163.278 232.49 163.521 236.454 162.283ZM224.498 163.119C224.766 163.019 225.065 163.026 225.324 163.148C229.103 164.923 231.129 166.43 233.766 169.556C234.135 169.994 234.063 170.66 233.614 171.016C221.064 180.959 214.484 168.555 214.257 164.402C214.228 163.87 214.744 163.591 215.263 163.713C218.85 164.555 221.073 164.402 224.498 163.119Z" fill="#7E1B1B"/>
<path d="M233.614 171.016C234.063 170.66 234.135 169.994 233.766 169.556C231.129 166.43 229.103 164.923 225.324 163.148C225.065 163.026 224.766 163.019 224.498 163.119C221.073 164.402 218.85 164.555 215.263 163.713C214.744 163.591 214.228 163.87 214.257 164.402C214.484 168.555 221.064 180.959 233.614 171.016Z" fill="#F5696C"/>
<path d="M253.959 99.6167C253.988 103.793 262.765 104.064 267.59 103.308C267.642 103.3 267.672 103.248 267.653 103.199C266.142 99.3345 255.571 96.4643 253.968 99.5783C253.962 99.59 253.959 99.6036 253.959 99.6167Z" fill="black"/>
<path d="M191.652 102.257C191.623 106.433 182.846 106.704 178.021 105.948C177.969 105.94 177.939 105.888 177.958 105.839C179.469 101.975 190.04 99.1044 191.643 102.218C191.649 102.23 191.652 102.244 191.652 102.257Z" fill="black"/>
<g filter="url(#filter3_f_988_13609)">
<path d="M155.34 92.9898C164.552 89.6222 189.155 56.4072 215.241 51.022C217.398 50.5768 219.538 49.6973 221.047 48.094C249.026 18.3757 153.173 14.7208 135.688 75.9593C135.348 77.1488 135.771 78.4443 136.734 79.2203L153.205 92.4883C153.821 92.9846 154.597 93.2614 155.34 92.9898Z" fill="#FEFCEF" fill-opacity="0.9"/>
<path d="M149.705 145.628C148.535 129.667 149.636 118.542 153.635 100.652C154.753 93.1809 120.897 79.531 121.953 103.292C123.326 150.883 130.648 156.833 136.013 157.918C137.518 158.222 139.073 157.945 140.523 157.441L142.548 156.737C147.185 155.124 150.063 150.525 149.705 145.628Z" fill="#FEFCEF" fill-opacity="0.9"/>
<path d="M174.174 98.3478L179.753 92.2368C181.355 90.4823 181.196 87.7523 179.4 86.1963L177.86 84.8617C176.132 83.3638 173.525 83.5135 171.98 85.1995L166.29 91.4071C164.602 93.2479 164.871 96.1426 166.869 97.6409L168.52 98.8789C170.26 100.184 172.707 99.9543 174.174 98.3478Z" fill="#FEFCEF" fill-opacity="0.9"/>
</g>
<path d="M256.149 121.816C255.823 122.123 255.224 121.733 254.789 122.103C254.369 122.477 254.496 122.787 253.971 123.101C253.44 123.427 253.167 124.012 252.885 124.11C252.602 124.21 252.878 124.511 252.564 124.727C252.249 124.95 252.146 125.161 252.05 125.5C251.951 125.833 251.482 126.692 251.153 126.907C250.822 127.115 250.845 127.616 250.779 127.856C250.758 127.932 250.752 127.999 250.754 128.054C250.755 128.077 250.773 128.098 250.795 128.112C250.795 128.112 250.795 128.112 250.795 128.112C250.823 128.128 250.858 128.132 250.874 128.113C250.953 128.019 251.092 127.891 251.301 127.777C251.696 127.558 251.508 127.398 251.897 127.017C252.286 126.646 252.646 126.526 252.903 125.962C253.177 125.397 253.713 125.69 254.046 124.862C254.421 124.032 254.921 124.447 255.602 124.067C256.283 123.691 257.05 122.959 257.54 122.822C258.016 122.68 258.671 122.567 259.355 122.349C260.046 122.126 260.957 122.229 261.749 122.028C262.543 121.819 263.7 121.616 264.248 121.498C264.782 121.377 264.927 121.352 265.44 121.447C265.745 121.502 266.146 121.478 266.511 121.332C266.695 121.259 266.66 121.142 266.483 121.077C266.224 120.983 266.01 121.027 265.884 120.878C265.629 120.579 265.509 120.464 265.167 120.621C264.829 120.779 264.666 120.395 264.468 120.436C264.271 120.479 264.269 120.694 263.256 120.531C262.237 120.374 261.658 120.374 261.271 120.363C260.868 120.352 260.079 120.63 259.433 120.673C258.781 120.698 257.502 121.095 256.954 121.188C256.402 121.271 256.486 121.512 256.149 121.816ZM191.026 124.59C191.44 124.628 191.412 125.313 191.827 125.466C192.246 125.63 192.499 125.401 192.875 125.787C193.241 126.171 193.778 126.383 193.851 126.654C193.917 126.918 194.237 126.659 194.4 126.979C194.561 127.301 194.729 127.424 195.026 127.588C195.322 127.74 195.972 128.462 196.023 128.849C196.073 129.224 196.523 129.413 196.705 129.585C196.762 129.639 196.817 129.675 196.866 129.7C196.887 129.71 196.914 129.704 196.937 129.691C196.937 129.691 196.937 129.691 196.937 129.691C196.965 129.674 196.985 129.646 196.976 129.622C196.93 129.507 196.882 129.325 196.872 129.083C196.844 128.624 196.622 128.723 196.414 128.206C196.205 127.698 196.193 127.288 195.676 126.867C195.159 126.464 195.522 125.926 194.609 125.497C193.696 125.112 194.05 124.57 193.294 123.927C192.524 123.284 191.246 123.098 190.729 122.893C190.206 122.671 189.483 122.385 188.685 122.316C187.895 122.245 186.953 121.917 186.082 122.012C185.213 122.1 184.02 122.278 183.469 122.414C182.93 122.548 182.79 122.58 182.266 122.52C181.955 122.486 181.551 122.546 181.203 122.729C181.028 122.821 181.075 122.934 181.258 122.98C181.524 123.046 181.731 122.983 181.868 123.122C182.144 123.398 182.265 123.504 182.589 123.326C182.913 123.15 183.089 123.527 183.277 123.481C183.465 123.436 183.47 123.202 184.449 123.384C185.425 123.573 185.954 123.659 186.309 123.728C186.672 123.797 187.447 123.683 188.016 123.855C188.585 124.01 189.746 124.245 190.138 124.525C190.528 124.793 190.619 124.562 191.026 124.59Z" fill="black"/>
<path d="M186.9 177.216C196.481 190.411 200.866 198.169 207.493 212.594M207.493 212.594C209.882 211.728 211.348 211.87 213.249 213.088C213.28 213.108 213.322 213.105 213.35 213.081C220.748 206.992 225.044 206.988 231.21 212.554C231.236 212.577 231.276 212.583 231.307 212.566C234.085 211.14 235.714 210.782 238.647 210.482M207.493 212.594C204.995 214.856 204.648 217.08 207.493 223.154M207.493 212.594C208.81 215.578 209.459 217.715 209.605 222.13M259.768 174.048C250.186 187.243 245.274 196.057 238.647 210.482M238.647 210.482C240.865 215.156 240.511 217.588 237.063 221.57M207.493 223.154C203.68 229.92 204.543 239.178 205.909 255.364M209.605 222.13C209.189 222.331 208.758 222.538 208.307 222.757C208.043 222.885 207.772 223.017 207.493 223.154M237.063 221.57C241.556 226.217 239.803 237.562 238.647 253.779M237.063 221.57C234.155 220.656 232.702 220.007 229.733 218.435C229.697 218.416 229.651 218.426 229.625 218.458C224.482 224.876 221.443 224.594 215.996 218.463C215.966 218.429 215.914 218.424 215.879 218.451C213.791 220.078 211.942 221.003 209.605 222.13M237.063 221.57C235.454 228.514 235.537 238.215 235.478 254.308M208.307 222.757C210.565 231.755 210.131 240.912 210.133 255.364" stroke="black" stroke-width="1.05605"/>
<defs>
<filter id="filter0_i_988_13609" x="102.886" y="11.8857" width="221.887" height="318.453" filterUnits="userSpaceOnUse" color-interpolation-filters="sRGB">
<feFlood flood-opacity="0" result="BackgroundImageFix"/>
<feBlend mode="normal" in="SourceGraphic" in2="BackgroundImageFix" result="shape"/>
<feColorMatrix in="SourceAlpha" type="matrix" values="0 0 0 0 0 0 0 0 0 0 0 0 0 0 0 0 0 0 127 0" result="hardAlpha"/>
<feOffset dy="4.22419"/>
<feGaussianBlur stdDeviation="2.1121"/>
<feComposite in2="hardAlpha" operator="arithmetic" k2="-1" k3="1"/>
<feColorMatrix type="matrix" values="0 0 0 0 0.130719 0 0 0 0 0.643137 0 0 0 0 0.669281 0 0 0 1 0"/>
<feBlend mode="normal" in2="shape" result="effect1_innerShadow_988_13609"/>
</filter>
<filter id="filter1_f_988_13609" x="252.149" y="130.032" width="23.6029" height="31.5985" filterUnits="userSpaceOnUse" color-interpolation-filters="sRGB">
<feFlood flood-opacity="0" result="BackgroundImageFix"/>
<feBlend mode="normal" in="SourceGraphic" in2="BackgroundImageFix" result="shape"/>
<feGaussianBlur stdDeviation="0.264012" result="effect1_foregroundBlur_988_13609"/>
</filter>
<filter id="filter2_f_988_13609" x="170.915" y="133.399" width="23.6039" height="31.5985" filterUnits="userSpaceOnUse" color-interpolation-filters="sRGB">
<feFlood flood-opacity="0" result="BackgroundImageFix"/>
<feBlend mode="normal" in="SourceGraphic" in2="BackgroundImageFix" result="shape"/>
<feGaussianBlur stdDeviation="0.264012" result="effect1_foregroundBlur_988_13609"/>
</filter>
<filter id="filter3_f_988_13609" x="99.6435" y="5.01604" width="148.772" height="175.314" filterUnits="userSpaceOnUse" color-interpolation-filters="sRGB">
<feFlood flood-opacity="0" result="BackgroundImageFix"/>
<feBlend mode="normal" in="SourceGraphic" in2="BackgroundImageFix" result="shape"/>
<feGaussianBlur stdDeviation="11.1429" result="effect1_foregroundBlur_988_13609"/>
</filter>
<radialGradient id="paint0_radial_988_13609" cx="0" cy="0" r="1" gradientUnits="userSpaceOnUse" gradientTransform="translate(213.829 169) rotate(90) scale(156 109.829)">
<stop stop-color="#9E5EA1"/>
<stop offset="1" stop-color="#C59EC7"/>
</radialGradient>
<radialGradient id="paint1_radial_988_13609" cx="0" cy="0" r="1" gradientUnits="userSpaceOnUse" gradientTransform="translate(213.829 169) rotate(90) scale(156 109.829)">
<stop stop-color="#9E5EA1"/>
<stop offset="1" stop-color="#C59EC7"/>
</radialGradient>
<radialGradient id="paint2_radial_988_13609" cx="0" cy="0" r="1" gradientUnits="userSpaceOnUse" gradientTransform="translate(213.829 169) rotate(90) scale(156 109.829)">
<stop stop-color="#9E5EA1"/>
<stop offset="1" stop-color="#C59EC7"/>
</radialGradient>
<radialGradient id="paint3_radial_988_13609" cx="0" cy="0" r="1" gradientUnits="userSpaceOnUse" gradientTransform="translate(213.829 169) rotate(90) scale(156 109.829)">
<stop stop-color="#9E5EA1"/>
<stop offset="1" stop-color="#C59EC7"/>
</radialGradient>
<radialGradient id="paint4_radial_988_13609" cx="0" cy="0" r="1" gradientUnits="userSpaceOnUse" gradientTransform="translate(213.829 169) rotate(90) scale(156 109.829)">
<stop stop-color="#9E5EA1"/>
<stop offset="1" stop-color="#C59EC7"/>
</radialGradient>
</defs>
</svg>
